<svg xmlns="http://www.w3.org/2000/svg" viewBox="0 0 189 63" width="189" height="63"><defs><clipPath id="alignment-14352508199066304482">
<path d="M0,-8 C4.414278222232112,-8 8,-4.414278222232112 8,0 C8,4.414278222232112 4.414278222232112,8 0,8 C-4.414278222232112,8 -8,4.414278222232112 -8,0 C-8,-4.414278222232112 -4.414278222232112,-8 0,-8 Z" fill="#000000"/></clipPath><clipPath id="alignment-5258284658437141219">
<path d="M0,-8 C4.414278222232112,-8 8,-4.414278222232112 8,0 C8,4.414278222232112 4.414278222232112,8 0,8 C-4.414278222232112,8 -8,4.414278222232112 -8,0 C-8,-4.414278222232112 -4.414278222232112,-8 0,-8 Z" fill="#000000"/></clipPath><clipPath id="alignment-5032151376957751645">
<path d="M0,-8 C4.414278222232112,-8 8,-4.414278222232112 8,0 C8,4.414278222232112 4.414278222232112,8 0,8 C-4.414278222232112,8 -8,4.414278222232112 -8,0 C-8,-4.414278222232112 -4.414278222232112,-8 0,-8 Z" fill="#000000"/></clipPath></defs><g>
<g>
	<g transform="matrix(1,0,0,1,26.90020752,0)">
		<g transform="matrix(1,0,0,1,-37.450210571,0)">
			<path d="M60.33333333333333,56.918752034505204 Q58.333333333333336,56.918752034505204 56.864583333333336,56.25208536783854 Q55.395833333333336,55.585418701171875 54.427083333333336,54.40833536783854 Q53.46875,53.22083536783854 52.979166666666664,51.700002034505204 Q52.5,50.179168701171875 52.5,48.512502034505204 Q52.5,46.84583536783854 52.96875,45.304168701171875 Q53.4375,43.75208536783854 54.364583333333336,42.53333536783854 Q55.302083333333336,41.31458536783854 56.71875,40.606252034505204 Q58.135416666666664,39.887502034505204 60.0625,39.887502034505204 Q62,39.887502034505204 63.39583333333333,40.53333536783854 Q64.80208333333333,41.179168701171875 65.69791666666667,42.335418701171875 Q66.60416666666667,43.481252034505204 67.05208333333333,44.918752034505204 Q67.5,46.34583536783854 67.5,47.950002034505204 Q67.5,48.116668701171875 67.47916666666666,48.56458536783854 Q67.46875,49.012502034505204 67.39583333333333,49.418752034505204 Q55.770833333333336,49.418752034505204 55.770833333333336,49.418752034505204 Q55.864583333333336,51.616668701171875 57.114583333333336,52.804168701171875 Q58.364583333333336,53.981252034505204 60.4375,53.981252034505204 Q61.83333333333333,53.981252034505204 62.92708333333333,53.53333536783854 Q64.03125,53.085418701171875 64.96875,52.116668701171875 Q66.96875,54.179168701171875 66.96875,54.179168701171875 Q66,55.147918701171875 64.97916666666667,55.75208536783854 Q63.96875,56.34583536783854 62.84375,56.62708536783854 Q61.729166666666664,56.918752034505204 60.33333333333333,56.918752034505204 Q60.33333333333333,56.918752034505204 60.33333333333333,56.918752034505204 ZM64.27083333333333,47.78333536783854 Q64.33333333333333,47.512502034505204 64.34375,47.25208536783854 Q64.36458333333333,46.981252034505204 64.36458333333333,46.72083536783854 Q64.36458333333333,45.950002034505204 64.09375,45.22083536783854 Q63.83333333333333,44.481252034505204 63.30208333333333,43.897918701171875 Q62.77083333333333,43.31458536783854 61.979166666666664,42.97083536783854 Q61.197916666666664,42.616668701171875 60.166666666666664,42.616668701171875 Q58.802083333333336,42.616668701171875 57.833333333333336,43.231252034505204 Q56.864583333333336,43.84583536783854 56.34375,44.84583536783854 Q55.833333333333336,45.84583536783854 55.729166666666664,47.012502034505204 Q65.33333333333333,47.012502034505204 65.33333333333333,47.012502034505204 C65.33333333333333,47.012502034505204 64.27083333333333,47.78333536783854 64.27083333333333,47.78333536783854 ZM71.27083333333333,56.616668701171875 C71.27083333333333,56.616668701171875 71.27083333333333,40.179168701171875 71.27083333333333,40.179168701171875 C71.27083333333333,40.179168701171875 74.5625,40.179168701171875 74.5625,40.179168701171875 C74.5625,40.179168701171875 74.5625,43.75208536783854 74.5625,43.75208536783854 C74.5625,43.75208536783854 73.89583333333333,43.950002034505204 73.89583333333333,43.950002034505204 Q74.33333333333333,42.585418701171875 75.14583333333333,41.700002034505204 Q75.96875,40.81458536783854 77.08333333333333,40.356252034505204 Q78.19791666666666,39.887502034505204 79.5,39.887502034505204 Q82.22916666666666,39.887502034505204 83.78125,41.47083536783854 Q85.33333333333333,43.054168701171875 85.33333333333333,46.085418701171875 Q85.33333333333333,56.616668701171875 85.33333333333333,56.616668701171875 C85.33333333333333,56.616668701171875 82.0625,56.616668701171875 82.0625,56.616668701171875 C82.0625,56.616668701171875 82.0625,47.28333536783854 82.0625,47.28333536783854 Q82.0625,44.918752034505204 81.20833333333333,43.825002034505204 Q80.36458333333333,42.72083536783854 78.60416666666666,42.72083536783854 Q77.27083333333333,42.72083536783854 76.38541666666666,43.325002034505204 Q75.5,43.918752034505204 75.03125,45.22083536783854 Q74.5625,46.512502034505204 74.5625,48.512502034505204 Q74.5625,56.616668701171875 74.5625,56.616668701171875 C74.5625,56.616668701171875 71.27083333333333,56.616668701171875 71.27083333333333,56.616668701171875 ZM96.6625010172526,56.918752034505204 Q94.79791768391927,56.918752034505204 93.3500010172526,56.241668701171875 Q91.90208435058594,55.554168701171875 90.9125010172526,54.356252034505204 Q89.93333435058594,53.147918701171875 89.43333435058594,51.616668701171875 Q88.93333435058594,50.085418701171875 88.93333435058594,48.387502034505204 Q88.93333435058594,46.72083536783854 89.43333435058594,45.18958536783854 Q89.93333435058594,43.647918701171875 90.9125010172526,42.450002034505204 Q91.90208435058594,41.25208536783854 93.3500010172526,40.575002034505204 Q94.79791768391927,39.887502034505204 96.6625010172526,39.887502034505204 Q99.0687510172526,39.887502034505204 100.8500010172526,41.054168701171875 Q102.6312510172526,42.22083536783854 103.46458435058594,44.585418701171875 Q100.6000010172526,45.679168701171875 100.6000010172526,45.679168701171875 Q100.1625010172526,44.387502034505204 99.1937510172526,43.554168701171875 Q98.23541768391927,42.72083536783854 96.6625010172526,42.72083536783854 Q95.1312510172526,42.72083536783854 94.1312510172526,43.53333536783854 Q93.1312510172526,44.34583536783854 92.6625010172526,45.637502034505204 Q92.20416768391927,46.918752034505204 92.20416768391927,48.387502034505204 Q92.20416768391927,49.84583536783854 92.6625010172526,51.147918701171875 Q93.1312510172526,52.450002034505204 94.1312510172526,53.25208536783854 Q95.1312510172526,54.054168701171875 96.6625010172526,54.054168701171875 Q98.23541768391927,54.054168701171875 99.1937510172526,53.241668701171875 Q100.1625010172526,52.418752034505204 100.6000010172526,51.085418701171875 Q103.46458435058594,52.179168701171875 103.46458435058594,52.179168701171875 Q102.6312510172526,54.585418701171875 100.8500010172526,55.75208536783854 Q99.0687510172526,56.918752034505204 96.6625010172526,56.918752034505204 Q96.6625010172526,56.918752034505204 96.6625010172526,56.918752034505204 ZM107.00417073567708,56.616668701171875 C107.00417073567708,56.616668701171875 107.00417073567708,33.387502034505204 107.00417073567708,33.387502034505204 C107.00417073567708,33.387502034505204 110.29583740234375,33.387502034505204 110.29583740234375,33.387502034505204 C110.29583740234375,33.387502034505204 110.29583740234375,43.75208536783854 110.29583740234375,43.75208536783854 C110.29583740234375,43.75208536783854 109.59792073567708,43.981252034505204 109.59792073567708,43.981252034505204 Q110.03542073567708,42.616668701171875 110.87917073567708,41.72083536783854 Q111.73333740234375,40.81458536783854 112.84792073567708,40.356252034505204 Q113.96250406901041,39.887502034505204 115.23333740234375,39.887502034505204 Q117.96250406901041,39.887502034505204 119.51458740234375,41.47083536783854 Q121.06667073567708,43.054168701171875 121.06667073567708,46.085418701171875 Q121.06667073567708,56.616668701171875 121.06667073567708,56.616668701171875 C121.06667073567708,56.616668701171875 117.79583740234375,56.616668701171875 117.79583740234375,56.616668701171875 C117.79583740234375,56.616668701171875 117.79583740234375,47.28333536783854 117.79583740234375,47.28333536783854 Q117.79583740234375,44.918752034505204 116.94167073567708,43.825002034505204 Q116.09792073567708,42.72083536783854 114.33750406901041,42.72083536783854 Q112.36875406901041,42.72083536783854 111.32708740234375,44.106252034505204 Q110.29583740234375,45.481252034505204 110.29583740234375,48.512502034505204 Q110.29583740234375,56.616668701171875 110.29583740234375,56.616668701171875 C110.29583740234375,56.616668701171875 107.00417073567708,56.616668701171875 107.00417073567708,56.616668701171875 ZM125.43750508626302,56.616668701171875 C125.43750508626302,56.616668701171875 125.43750508626302,40.179168701171875 125.43750508626302,40.179168701171875 C125.43750508626302,40.179168701171875 128.7291717529297,40.179168701171875 128.7291717529297,40.179168701171875 C128.7291717529297,40.179168701171875 128.7291717529297,44.418752034505204 128.7291717529297,44.418752034505204 C128.7291717529297,44.418752034505204 128.031255086263,44.647918701171875 128.031255086263,44.647918701171875 Q128.33333841959634,43.34583536783854 128.86458841959634,42.450002034505204 Q129.39583841959634,41.554168701171875 130.11458841959634,40.991668701171875 Q130.83333841959634,40.418752034505204 131.6666717529297,40.15833536783854 Q132.500005086263,39.887502034505204 133.36458841959634,39.887502034505204 Q134.80208841959634,39.887502034505204 135.9479217529297,40.43958536783854 Q137.1041717529297,40.981252034505204 137.8854217529297,42.137502034505204 Q138.6666717529297,43.28333536783854 138.937505086263,45.147918701171875 Q137.062505086263,45.512502034505204 137.062505086263,45.512502034505204 Q137.562505086263,43.585418701171875 138.375005086263,42.356252034505204 Q139.1979217529297,41.116668701171875 140.375005086263,40.50208536783854 Q141.562505086263,39.887502034505204 143.1041717529297,39.887502034505204 Q145.1666717529297,39.887502034505204 146.4166717529297,40.825002034505204 Q147.6666717529297,41.75208536783854 148.250005086263,43.241668701171875 Q148.83333841959634,44.72083536783854 148.83333841959634,46.481252034505204 Q148.83333841959634,56.616668701171875 148.83333841959634,56.616668701171875 C148.83333841959634,56.616668701171875 145.6041717529297,56.616668701171875 145.6041717529297,56.616668701171875 C145.6041717529297,56.616668701171875 145.6041717529297,47.28333536783854 145.6041717529297,47.28333536783854 Q145.6041717529297,45.84583536783854 145.27083841959634,44.835418701171875 Q144.937505086263,43.81458536783854 144.2291717529297,43.272918701171875 Q143.531255086263,42.72083536783854 142.36458841959634,42.72083536783854 Q141.2291717529297,42.72083536783854 140.42708841959634,43.304168701171875 Q139.6354217529297,43.887502034505204 139.218755086263,45.054168701171875 Q138.80208841959634,46.22083536783854 138.80208841959634,47.950002034505204 Q138.80208841959634,56.616668701171875 138.80208841959634,56.616668701171875 C138.80208841959634,56.616668701171875 135.531255086263,56.616668701171875 135.531255086263,56.616668701171875 C135.531255086263,56.616668701171875 135.531255086263,47.085418701171875 135.531255086263,47.085418701171875 Q135.531255086263,44.887502034505204 134.70833841959634,43.804168701171875 Q133.89583841959634,42.72083536783854 132.36458841959634,42.72083536783854 Q131.2291717529297,42.72083536783854 130.4166717529297,43.304168701171875 Q129.6041717529297,43.887502034505204 129.1666717529297,45.054168701171875 Q128.7291717529297,46.22083536783854 128.7291717529297,47.950002034505204 Q128.7291717529297,56.616668701171875 128.7291717529297,56.616668701171875 C128.7291717529297,56.616668701171875 125.43750508626302,56.616668701171875 125.43750508626302,56.616668701171875 ZM163.93333943684894,56.616668701171875 C163.93333943684894,56.616668701171875 163.66250610351563,53.585418701171875 163.66250610351563,53.585418701171875 C163.66250610351563,53.585418701171875 163.66250610351563,46.28333536783854 163.66250610351563,46.28333536783854 Q163.66250610351563,44.554168701171875 162.66250610351563,43.616668701171875 Q161.66250610351563,42.679168701171875 159.76667277018228,42.679168701171875 Q158.43333943684894,42.679168701171875 157.21458943684894,43.22083536783854 Q155.99583943684894,43.75208536783854 154.90208943684894,44.950002034505204 Q152.87083943684894,42.84583536783854 152.87083943684894,42.84583536783854 Q154.32917277018228,41.31458536783854 156.11042277018228,40.606252034505204 Q157.90208943684894,39.887502034505204 159.99583943684894,39.887502034505204 Q163.29792277018228,39.887502034505204 165.11042277018228,41.575002034505204 Q166.93333943684894,43.25208536783854 166.93333943684894,46.28333536783854 Q166.93333943684894,56.616668701171875 166.93333943684894,56.616668701171875 C166.93333943684894,56.616668701171875 163.93333943684894,56.616668701171875 163.93333943684894,56.616668701171875 ZM158.63125610351563,56.918752034505204 Q156.79792277018228,56.918752034505204 155.39167277018228,56.25208536783854 Q153.99583943684894,55.585418701171875 153.22500610351563,54.40833536783854 Q152.46458943684894,53.22083536783854 152.46458943684894,51.647918701171875 Q152.46458943684894,50.28333536783854 153.02708943684894,49.304168701171875 Q153.60000610351563,48.31458536783854 154.49583943684894,47.78333536783854 Q155.32917277018228,47.25208536783854 156.41250610351563,47.03333536783854 Q157.49583943684894,46.81458536783854 158.73542277018228,46.81458536783854 Q163.96458943684894,46.81458536783854 163.96458943684894,46.81458536783854 C163.96458943684894,46.81458536783854 163.96458943684894,49.28333536783854 163.96458943684894,49.28333536783854 C163.96458943684894,49.28333536783854 159.20417277018228,49.28333536783854 159.20417277018228,49.28333536783854 Q158.53750610351563,49.28333536783854 157.81875610351563,49.397918701171875 Q157.10000610351563,49.512502034505204 156.60000610351563,49.887502034505204 Q156.20417277018228,50.179168701171875 155.96458943684894,50.637502034505204 Q155.73542277018228,51.085418701171875 155.73542277018228,51.679168701171875 Q155.73542277018228,52.84583536783854 156.63125610351563,53.554168701171875 Q157.53750610351563,54.25208536783854 159.03750610351563,54.25208536783854 Q160.29792277018228,54.25208536783854 161.35000610351563,53.668752034505204 Q162.40208943684894,53.085418701171875 163.02708943684894,52.075002034505204 Q163.66250610351563,51.054168701171875 163.66250610351563,49.75208536783854 Q164.82917277018228,51.28333536783854 164.82917277018228,51.28333536783854 Q164.53750610351563,53.012502034505204 163.66250610351563,54.304168701171875 Q162.79792277018228,55.585418701171875 161.51667277018228,56.25208536783854 Q160.23542277018228,56.918752034505204 158.63125610351563,56.918752034505204 Q158.63125610351563,56.918752034505204 158.63125610351563,56.918752034505204 ZM171.27084350585938,56.616668701171875 C171.27084350585938,56.616668701171875 171.27084350585938,40.179168701171875 171.27084350585938,40.179168701171875 C171.27084350585938,40.179168701171875 174.56251017252603,40.179168701171875 174.56251017252603,40.179168701171875 C174.56251017252603,40.179168701171875 174.56251017252603,44.616668701171875 174.56251017252603,44.616668701171875 C174.56251017252603,44.616668701171875 173.86459350585938,44.75208536783854 173.86459350585938,44.75208536783854 Q174.03126017252603,43.28333536783854 174.87501017252603,42.200002034505204 Q175.7291768391927,41.116668701171875 176.89584350585938,40.50208536783854 Q178.06251017252603,39.887502034505204 179.1979268391927,39.887502034505204 Q180.00001017252603,39.887502034505204 180.71876017252603,40.075002034505204 Q181.43751017252603,40.25208536783854 182.1666768391927,40.679168701171875 Q180.56251017252603,43.616668701171875 180.56251017252603,43.616668701171875 Q180.1979268391927,43.418752034505204 179.62501017252603,43.28333536783854 Q179.06251017252603,43.147918701171875 178.56251017252603,43.147918701171875 Q177.80209350585938,43.147918701171875 177.06251017252603,43.418752034505204 Q176.33334350585938,43.679168701171875 175.75001017252603,44.28333536783854 Q175.1666768391927,44.887502034505204 174.86459350585938,45.84583536783854 Q174.7291768391927,46.31458536783854 174.64584350585938,47.06458536783854 Q174.56251017252603,47.81458536783854 174.56251017252603,49.116668701171875 Q174.56251017252603,56.616668701171875 174.56251017252603,56.616668701171875 C174.56251017252603,56.616668701171875 171.27084350585938,56.616668701171875 171.27084350585938,56.616668701171875 ZM196.23542277018228,56.616668701171875 C196.23542277018228,56.616668701171875 190.99583943684894,48.481252034505204 190.99583943684894,48.481252034505204 C190.99583943684894,48.481252034505204 187.96458943684894,51.75208536783854 187.96458943684894,51.75208536783854 C187.96458943684894,51.75208536783854 187.96458943684894,47.585418701171875 187.96458943684894,47.585418701171875 C187.96458943684894,47.585418701171875 195.13125610351563,40.179168701171875 195.13125610351563,40.179168701171875 C195.13125610351563,40.179168701171875 199.29792277018228,40.179168701171875 199.29792277018228,40.179168701171875 C199.29792277018228,40.179168701171875 193.37083943684894,46.28333536783854 193.37083943684894,46.28333536783854 C193.37083943684894,46.28333536783854 200.10000610351563,56.616668701171875 200.10000610351563,56.616668701171875 C200.10000610351563,56.616668701171875 196.23542277018228,56.616668701171875 196.23542277018228,56.616668701171875 ZM185.03750610351563,56.616668701171875 C185.03750610351563,56.616668701171875 185.03750610351563,33.387502034505204 185.03750610351563,33.387502034505204 C185.03750610351563,33.387502034505204 188.32917277018228,33.387502034505204 188.32917277018228,33.387502034505204 C188.32917277018228,33.387502034505204 188.32917277018228,56.616668701171875 188.32917277018228,56.616668701171875 C188.32917277018228,56.616668701171875 185.03750610351563,56.616668701171875 185.03750610351563,56.616668701171875 Z" fill="#000000"/>
		</g>
		<g transform="matrix(1,0,0,1,-37.450210571,0)">
			<path d="M17.375,56.39500427246094 C17.375,56.39500427246094 17.375,7.5981292724609375 17.375,7.5981292724609375 C17.375,7.5981292724609375 31.296875,7.5981292724609375 31.296875,7.5981292724609375 Q37.875,7.5981292724609375 41.625,10.785629272460938 Q45.375,13.973129272460938 45.375,19.645004272460938 Q45.375,23.629379272460938 43.515625,26.504379272460938 Q41.65625,29.379379272460938 38.296875,30.629379272460938 Q42.78125,31.473129272460938 45.265625,34.69187927246094 Q47.75,37.91062927246094 47.75,43.09812927246094 Q47.75,49.59812927246094 43.796875,53.00437927246094 Q39.84375,56.39500427246094 32.34375,56.39500427246094 Q17.375,56.39500427246094 17.375,56.39500427246094 ZM20.375,53.59812927246094 C20.375,53.59812927246094 32.203125,53.59812927246094 32.203125,53.59812927246094 Q44.8125,53.59812927246094 44.8125,43.02000427246094 Q44.8125,37.98875427246094 42.078125,35.22312927246094 Q39.34375,32.45750427246094 34.453125,32.45750427246094 Q20.375,32.45750427246094 20.375,32.45750427246094 C20.375,32.45750427246094 20.375,53.59812927246094 20.375,53.59812927246094 ZM20.375,29.723129272460938 C20.375,29.723129272460938 32.90625,29.723129272460938 32.90625,29.723129272460938 Q37.25,29.723129272460938 39.84375,27.098129272460938 Q42.4375,24.473129272460938 42.4375,20.066879272460938 Q42.4375,15.441879272460938 39.484375,12.926254272460938 Q36.546875,10.410629272460938 31.296875,10.410629272460938 Q20.375,10.410629272460938 20.375,10.410629272460938 C20.375,10.410629272460938 20.375,29.723129272460938 20.375,29.723129272460938 Z" fill="#ffd500" stroke="#f2b200" stroke-width="4" style="paint-order: stroke;" />
		</g>
		<g transform="matrix(1,0,0,1,-37.450210571,0)">
			<path d="M0,-8 C4.414278222232112,-8 8,-4.414278222232112 8,0 C8,4.414278222232112 4.414278222232112,8 0,8 C-4.414278222232112,8 -8,4.414278222232112 -8,0 C-8,-4.414278222232112 -4.414278222232112,-8 0,-8 Z" transform="matrix(1,0,0,1,19,11)" fill="#ffd500"/>
			<path d="M0,-8 C4.414278222232112,-8 8,-4.414278222232112 8,0 C8,4.414278222232112 4.414278222232112,8 0,8 C-4.414278222232112,8 -8,4.414278222232112 -8,0 C-8,-4.414278222232112 -4.414278222232112,-8 0,-8 Z" transform="matrix(1,0,0,1,19,11)" clip-path="url(#alignment-14352508199066304482)" fill="none" stroke="#f2b200" stroke-width="4"/>
			<path d="M0,-8 C4.414278222232112,-8 8,-4.414278222232112 8,0 C8,4.414278222232112 4.414278222232112,8 0,8 C-4.414278222232112,8 -8,4.414278222232112 -8,0 C-8,-4.414278222232112 -4.414278222232112,-8 0,-8 Z" transform="matrix(1,0,0,1,19,53)" fill="#ffd500"/>
			<path d="M0,-8 C4.414278222232112,-8 8,-4.414278222232112 8,0 C8,4.414278222232112 4.414278222232112,8 0,8 C-4.414278222232112,8 -8,4.414278222232112 -8,0 C-8,-4.414278222232112 -4.414278222232112,-8 0,-8 Z" transform="matrix(1,0,0,1,19,53)" clip-path="url(#alignment-5258284658437141219)" fill="none" stroke="#f2b200" stroke-width="4"/>
		</g>
		<g transform="matrix(1,0,0,1,-37.450210571,0)">
			<path d="M0,-8 C4.414278222232112,-8 8,-4.414278222232112 8,0 C8,4.414278222232112 4.414278222232112,8 0,8 C-4.414278222232112,8 -8,4.414278222232112 -8,0 C-8,-4.414278222232112 -4.414278222232112,-8 0,-8 Z" transform="matrix(1,0,0,1,19,30.740013361)" fill="#ffd500"/>
			<path d="M0,-8 C4.414278222232112,-8 8,-4.414278222232112 8,0 C8,4.414278222232112 4.414278222232112,8 0,8 C-4.414278222232112,8 -8,4.414278222232112 -8,0 C-8,-4.414278222232112 -4.414278222232112,-8 0,-8 Z" transform="matrix(1,0,0,1,19,30.740013361)" clip-path="url(#alignment-5032151376957751645)" fill="none" stroke="#f2b200" stroke-width="4"/>
		</g>
	</g>
</g></g></svg>