<svg xmlns="http://www.w3.org/2000/svg" viewBox="0 0 512 512" width="512" height="512">
	<defs></defs>
	<style>
		text {
		font-family: sans-serif;
		font-size: 560px;
		fill: #ffd500;
		}
	</style>
	<g>
		<g>
			<!-- <g>
				<path
					d="M346.9999955949302,162.45987015795296 C347.03829602185493,203.26474759502796
			349.41007951236486,231.59935336515485 325.26482807858275,248.0856830625619
			C303.7745342639922,262.7592129735317 263.61182771517565,266 175.00000000000003,266
			L165.00000000000003,266 L165.00000000000003,256 L164.99999999999994,68.93851278256126
			L164.99999999999994,58.93851278256126 L174.99999999999994,58.93851278256126
			C259.53573936941154,58.93851278256126 299.97115896529965,62.32038722176483
			322.3026687477954,76.97238019710802 C347.40490308382095,93.44228145945614
			346.9620616187279,122.04540551817934 346.9999955949302,162.45987015795296
			ZM327.0000044050698,162.47864262460828 C326.96227547869506,122.28263594360654
			326.69272140604454,103.77332099829101 311.3311417358602,93.69438949702096
			C293.0227788293748,81.68203532533276 251.00444908641356,78.93851278256126
			174.99999999999994,78.93851278256126 L184.99999999999994,68.93851278256126
			L185.00000000000003,256 L175.00000000000003,246 C253.84018588575424,245.99999999999997
			296.607964728986,243.4350748538905 313.98704615294736,231.56867259341797
			C328.49024902605674,221.66591449250515 327.0377050126783,202.64447878597136
			327.0000044050698,162.47864262460828 ZM327.0000044050698,349.45987015795293
			C327.0377050125391,309.29403414486075 328.49024904449607,290.27259830264643
			313.98704615294736,280.36984018914325 C296.60796472898403,268.50343792866937
			253.8401858857453,265.93851278256125 175.00000000000003,265.93851278256125
			L185.00000000000006,255.93851278256125 L185,443 L175,433 C251.00444908602174,433
			293.022778829305,430.2564774572742 311.3311417358602,418.24412328554024
			C326.69272140950926,408.16519178199695 326.96227547871024,389.65587682281085
			327.0000044050698,349.45987015795293 ZM346.9999955949302,349.4786426246083
			C346.962061618723,389.8931072695816 347.40490308243716,418.4962313240131
			322.3026687477954,434.96613258545324 C299.9711589653445,449.61812556076706
			259.5357393696348,453 175,453 L165,453 L165,443 L165.00000000000006,255.93851278256125
			L165.00000000000006,245.93851278256125 L175.00000000000006,245.93851278256128
			C263.6118277151054,245.93851278256136 303.77453426398193,249.17929980902255
			325.26482807858275,263.85282971999936 C349.4100795030214,280.3391594110267
			347.0382960219123,308.6737651264866 346.9999955949302,349.4786426246083 Z"
					fill="#ffd500" stroke="#f2b200" stroke-width="12" style="paint-order: stroke;" />
			</g> -->

			<text x="100" y="450">B</text>
			<g>
				<!-- <path
					d="M0,-50 C27.5892388889507,-50 50,-27.5892388889507 50,0 C50,27.5892388889507 27.5892388889507,50
				0,50 C-27.5892388889507,50 -50,27.5892388889507 -50,0 C-50,-27.5892388889507
				-27.5892388889507,-50 0,-50 Z"
					transform="matrix(1,0,0,1,337,162.469256391)" fill="#ffd500" stroke="#f2b200"
					stroke-width="6" /> -->
				<!-- <path
					d="M0,-50 C27.5892388889507,-50 50,-27.5892388889507 50,0 C50,27.5892388889507 27.5892388889507,50
				0,50 C-27.5892388889507,50 -50,27.5892388889507 -50,0 C-50,-27.5892388889507
				-27.5892388889507,-50 0,-50 Z"
					transform="matrix(1,0,0,1,175,256)" fill="#ffd500" stroke="#f2b200"
					stroke-width="6" /> -->
				<path
					d="M0,-50 C27.5892388889507,-50 50,-27.5892388889507 50,0 C50,27.5892388889507 27.5892388889507,50 0,50 C-27.5892388889507,50 -50,27.5892388889507 -50,0 C-50,-27.5892388889507 -27.5892388889507,-50 0,-50 Z"
					transform="matrix(1,0,0,1,175,68.938512783)" fill="#ffd500" stroke="#f2b200"
					stroke-width="6" />
				<!-- <path
					d="M0,-50 C27.5892388889507,-50 50,-27.5892388889507 50,0 C50,27.5892388889507 27.5892388889507,50
				0,50 C-27.5892388889507,50 -50,27.5892388889507 -50,0 C-50,-27.5892388889507
				-27.5892388889507,-50 0,-50 Z"
					transform="matrix(1,0,0,1,337,349.469256391)" fill="#ffd500" stroke="#f2b200"
					stroke-width="6" /> -->
				<!-- <path
					d="M0,-50 C27.5892388889507,-50 50,-27.5892388889507 50,0 C50,27.5892388889507 27.5892388889507,50
				0,50 C-27.5892388889507,50 -50,27.5892388889507 -50,0 C-50,-27.5892388889507
				-27.5892388889507,-50 0,-50 Z"
					transform="matrix(1,0,0,1,175,255.938512783)" fill="#ffd500" stroke="#f2b200"
					stroke-width="6" /> -->
				<path
					d="M0,-50 C27.5892388889507,-50 50,-27.5892388889507 50,0 C50,27.5892388889507 27.5892388889507,50 0,50 C-27.5892388889507,50 -50,27.5892388889507 -50,0 C-50,-27.5892388889507 -27.5892388889507,-50 0,-50 Z"
					transform="matrix(1,0,0,1,175,443)" fill="#ffd500" stroke="#f2b200"
					stroke-width="6" />

				<!-- <circle cx="360" cy="240" r="50" fill="#ffd500" stroke="#f2b200"
					stroke-width="6" /> -->
				<circle cx="180" cy="240" r="50" fill="#ffd500" stroke="#f2b200"
					stroke-width="6" />
			</g>
		</g>
	</g>
</svg>