<svg xmlns="http://www.w3.org/2000/svg" viewBox="0 0 512 512" width="512" height="512"><defs></defs><g>
<g>
	<g>
		<path d="M388.23147141552556,109.28012066496326 C269.4499712699099,73.56236883893332 113.97017069214581,75.14883710218405 124.64916450527164,255.4086144216796 L104.6841688280615,256.5913855783204 C94.10612937246441,78.03570232667575 236.60505821140032,42.801213000794505 393.9907508066966,90.12729578468954 L388.23147141552556,109.28012066496326 Z" fill="#708090" stroke="#3e4750" stroke-width="12" style="paint-order: stroke;" />
	</g>
	<g>
		<path d="M0,-50 C27.5892388889507,-50 50,-27.5892388889507 50,0 C50,27.5892388889507 27.5892388889507,50 0,50 C-27.5892388889507,50 -50,27.5892388889507 -50,0 C-50,-27.5892388889507 -27.5892388889507,-50 0,-50 Z" transform="matrix(1,0,0,1,391.111111111,99.703708225)" fill="#708090" stroke="#3e4750" stroke-width="6"/>
		<path d="M0,-50 C27.5892388889507,-50 50,-27.5892388889507 50,0 C50,27.5892388889507 27.5892388889507,50 0,50 C-27.5892388889507,50 -50,27.5892388889507 -50,0 C-50,-27.5892388889507 -27.5892388889507,-50 0,-50 Z" transform="matrix(1,0,0,1,114.666666667,256)" fill="#708090" stroke="#3e4750" stroke-width="6"/>
	</g>
	<g>
		<path d="M0,-50 C27.5892388889507,-50 50,-27.5892388889507 50,0 C50,27.5892388889507 27.5892388889507,50 0,50 C-27.5892388889507,50 -50,27.5892388889507 -50,0 C-50,-27.5892388889507 -27.5892388889507,-50 0,-50 Z" transform="matrix(1,0,0,1,180.764112169,102.76548236)" fill="#708090" stroke="#3e4750" stroke-width="6"/>
	</g>
	<g transform="matrix(1,0,0,-1,0,512)">
		<path d="M388.23147141552556,109.28012066496326 C269.4499712699099,73.56236883893332 113.97017069214581,75.14883710218405 124.64916450527164,255.4086144216796 L104.6841688280615,256.5913855783204 C94.10612937246441,78.03570232667575 236.60505821140032,42.801213000794505 393.9907508066966,90.12729578468954 L388.23147141552556,109.28012066496326 Z" fill="#708090" stroke="#3e4750" stroke-width="12" style="paint-order: stroke;" />
	</g>
	<g transform="matrix(1,0,0,-1,0,512)">
		<path d="M0,-50 C27.5892388889507,-50 50,-27.5892388889507 50,0 C50,27.5892388889507 27.5892388889507,50 0,50 C-27.5892388889507,50 -50,27.5892388889507 -50,0 C-50,-27.5892388889507 -27.5892388889507,-50 0,-50 Z" transform="matrix(1,0,0,1,391.111111111,99.703708225)" fill="#708090" stroke="#3e4750" stroke-width="6"/>
		<path d="M0,-50 C27.5892388889507,-50 50,-27.5892388889507 50,0 C50,27.5892388889507 27.5892388889507,50 0,50 C-27.5892388889507,50 -50,27.5892388889507 -50,0 C-50,-27.5892388889507 -27.5892388889507,-50 0,-50 Z" transform="matrix(1,0,0,1,114.666666667,256)" fill="#708090" stroke="#3e4750" stroke-width="6"/>
	</g>
	<g transform="matrix(1,0,0,-1,0,512)">
		<path d="M0,-50 C27.5892388889507,-50 50,-27.5892388889507 50,0 C50,27.5892388889507 27.5892388889507,50 0,50 C-27.5892388889507,50 -50,27.5892388889507 -50,0 C-50,-27.5892388889507 -27.5892388889507,-50 0,-50 Z" transform="matrix(1,0,0,1,180.764112169,102.76548236)" fill="#708090" stroke="#3e4750" stroke-width="6"/>
	</g>
</g></g></svg>