<svg xmlns="http://www.w3.org/2000/svg" viewBox="0 0 189 63" width="189" height="63"><defs><clipPath id="alignment-7275898684500556717">
<path d="M0,-8 C4.414278222232112,-8 8,-4.414278222232112 8,0 C8,4.414278222232112 4.414278222232112,8 0,8 C-4.414278222232112,8 -8,4.414278222232112 -8,0 C-8,-4.414278222232112 -4.414278222232112,-8 0,-8 Z" fill="#000000"/></clipPath><clipPath id="alignment-17184691743250471819">
<path d="M0,-8 C4.414278222232112,-8 8,-4.414278222232112 8,0 C8,4.414278222232112 4.414278222232112,8 0,8 C-4.414278222232112,8 -8,4.414278222232112 -8,0 C-8,-4.414278222232112 -4.414278222232112,-8 0,-8 Z" fill="#000000"/></clipPath><clipPath id="alignment-681173341472781659">
<path d="M0,-8 C4.414278222232112,-8 8,-4.414278222232112 8,0 C8,4.414278222232112 4.414278222232112,8 0,8 C-4.414278222232112,8 -8,4.414278222232112 -8,0 C-8,-4.414278222232112 -4.414278222232112,-8 0,-8 Z" fill="#000000"/></clipPath><clipPath id="alignment-16211296506679000636">
<path d="M0,-8 C4.414278222232112,-8 8,-4.414278222232112 8,0 C8,4.414278222232112 4.414278222232112,8 0,8 C-4.414278222232112,8 -8,4.414278222232112 -8,0 C-8,-4.414278222232112 -4.414278222232112,-8 0,-8 Z" fill="#000000"/></clipPath></defs><g>
<g>
	<g>
		<g transform="matrix(1,0,0,1,48.298957825,0)">
			<path d="M51,56.616668701171875 C51,56.616668701171875 50.72916666666667,53.585418701171875 50.72916666666667,53.585418701171875 C50.72916666666667,53.585418701171875 50.72916666666667,46.283335367838546 50.72916666666667,46.283335367838546 Q50.72916666666667,44.554168701171875 49.72916666666667,43.616668701171875 Q48.72916666666667,42.679168701171875 46.833333333333336,42.679168701171875 Q45.5,42.679168701171875 44.28125,43.220835367838546 Q43.0625,43.752085367838546 41.96875,44.95000203450521 Q39.9375,42.845835367838546 39.9375,42.845835367838546 Q41.395833333333336,41.314585367838546 43.177083333333336,40.60625203450521 Q44.96875,39.88750203450521 47.0625,39.88750203450521 Q50.364583333333336,39.88750203450521 52.177083333333336,41.57500203450521 Q54,43.252085367838546 54,46.283335367838546 Q54,56.616668701171875 54,56.616668701171875 C54,56.616668701171875 51,56.616668701171875 51,56.616668701171875 ZM45.69791666666667,56.91875203450521 Q43.864583333333336,56.91875203450521 42.458333333333336,56.252085367838546 Q41.0625,55.585418701171875 40.291666666666664,54.408335367838546 Q39.53125,53.220835367838546 39.53125,51.647918701171875 Q39.53125,50.283335367838546 40.09375,49.304168701171875 Q40.666666666666664,48.314585367838546 41.5625,47.783335367838546 Q42.395833333333336,47.252085367838546 43.479166666666664,47.033335367838546 Q44.5625,46.814585367838546 45.802083333333336,46.814585367838546 Q51.03125,46.814585367838546 51.03125,46.814585367838546 C51.03125,46.814585367838546 51.03125,49.283335367838546 51.03125,49.283335367838546 C51.03125,49.283335367838546 46.270833333333336,49.283335367838546 46.270833333333336,49.283335367838546 Q45.60416666666667,49.283335367838546 44.88541666666667,49.397918701171875 Q44.166666666666664,49.51250203450521 43.666666666666664,49.88750203450521 Q43.270833333333336,50.179168701171875 43.03125,50.63750203450521 Q42.802083333333336,51.085418701171875 42.802083333333336,51.679168701171875 Q42.802083333333336,52.845835367838546 43.697916666666664,53.554168701171875 Q44.604166666666664,54.252085367838546 46.10416666666667,54.252085367838546 Q47.364583333333336,54.252085367838546 48.41666666666667,53.66875203450521 Q49.46875,53.085418701171875 50.09375,52.07500203450521 Q50.72916666666667,51.054168701171875 50.72916666666667,49.752085367838546 Q51.895833333333336,51.283335367838546 51.895833333333336,51.283335367838546 Q51.60416666666667,53.01250203450521 50.72916666666667,54.304168701171875 Q49.864583333333336,55.585418701171875 48.583333333333336,56.252085367838546 Q47.302083333333336,56.91875203450521 45.69791666666667,56.91875203450521 Q45.69791666666667,56.91875203450521 45.69791666666667,56.91875203450521 ZM63.868750254313156,56.91875203450521 Q62.12916692097982,56.91875203450521 60.795833587646484,56.408335367838546 Q59.462500254313156,55.88750203450521 58.514583587646484,55.07500203450521 Q57.56666692097982,54.252085367838546 57.00416692097982,53.38750203450521 Q59.233333587646484,51.45000203450521 59.233333587646484,51.45000203450521 Q59.868750254313156,52.585418701171875 61.045833587646484,53.408335367838546 Q62.233333587646484,54.220835367838546 63.900000254313156,54.220835367838546 Q65.36875025431316,54.220835367838546 66.21250025431316,53.60625203450521 Q67.06666692097983,52.98125203450521 67.06666692097983,51.98125203450521 Q67.06666692097983,51.179168701171875 66.53541692097983,50.70000203450521 Q66.00416692097983,50.220835367838546 65.12916692097983,49.908335367838546 Q64.26458358764648,49.585418701171875 63.233333587646484,49.345835367838546 Q62.295833587646484,49.085418701171875 61.327083587646484,48.752085367838546 Q60.368750254313156,48.41875203450521 59.577083587646484,47.908335367838546 Q58.795833587646484,47.38750203450521 58.31666692097982,46.57500203450521 Q57.837500254313156,45.752085367838546 57.837500254313156,44.554168701171875 Q57.837500254313156,42.45000203450521 59.452083587646484,41.16875203450521 Q61.06666692097982,39.88750203450521 63.733333587646484,39.88750203450521 Q65.62916692097983,39.88750203450521 67.19166692097983,40.66875203450521 Q68.76458358764648,41.45000203450521 69.62916692097983,42.98125203450521 Q67.59791692097983,44.554168701171875 67.59791692097983,44.554168701171875 Q66.93125025431316,43.45000203450521 65.87916692097983,42.95000203450521 Q64.83750025431316,42.45000203450521 63.59791692097982,42.45000203450521 Q62.431250254313156,42.45000203450521 61.650000254313156,42.939585367838546 Q60.868750254313156,43.41875203450521 60.868750254313156,44.252085367838546 Q60.868750254313156,44.845835367838546 61.212500254313156,45.23125203450521 Q61.56666692097982,45.616668701171875 62.31666692097982,45.897918701171875 Q63.06666692097982,46.179168701171875 64.17083358764648,46.45000203450521 Q65.20208358764648,46.679168701171875 66.26458358764648,47.01250203450521 Q67.33750025431316,47.345835367838546 68.23333358764648,47.88750203450521 Q69.12916692097983,48.41875203450521 69.69166692097983,49.32500203450521 Q70.26458358764648,50.220835367838546 70.26458358764648,51.647918701171875 Q70.26458358764648,53.220835367838546 69.46250025431316,54.408335367838546 Q68.67083358764648,55.585418701171875 67.23333358764648,56.252085367838546 Q65.79583358764648,56.91875203450521 63.868750254313156,56.91875203450521 Q63.868750254313156,56.91875203450521 63.868750254313156,56.91875203450521 ZM79.76666768391928,56.91875203450521 Q78.56875101725261,56.91875203450521 77.54791768391928,56.45000203450521 Q76.53750101725261,55.98125203450521 75.95416768391928,54.939585367838546 Q75.37083435058594,53.88750203450521 75.37083435058594,52.220835367838546 Q75.37083435058594,35.98125203450521 75.37083435058594,35.98125203450521 C75.37083435058594,35.98125203450521 78.66250101725261,34.147918701171875 78.66250101725261,34.147918701171875 C78.66250101725261,34.147918701171875 78.66250101725261,51.345835367838546 78.66250101725261,51.345835367838546 Q78.66250101725261,52.720835367838546 79.07916768391928,53.470835367838546 Q79.49583435058594,54.220835367838546 80.63125101725261,54.220835367838546 Q80.96458435058594,54.220835367838546 81.41250101725261,54.13750203450521 Q81.87083435058594,54.054168701171875 82.40208435058594,53.91875203450521 Q82.40208435058594,56.45000203450521 82.40208435058594,56.45000203450521 Q81.73541768391928,56.679168701171875 81.06875101725261,56.79375203450521 Q80.40208435058594,56.91875203450521 79.76666768391928,56.91875203450521 Q79.76666768391928,56.91875203450521 79.76666768391928,56.91875203450521 ZM72.10000101725261,42.720835367838546 C72.10000101725261,42.720835367838546 72.10000101725261,40.179168701171875 72.10000101725261,40.179168701171875 C72.10000101725261,40.179168701171875 82.40208435058594,40.179168701171875 82.40208435058594,40.179168701171875 C82.40208435058594,40.179168701171875 82.40208435058594,42.720835367838546 82.40208435058594,42.720835367838546 C82.40208435058594,42.720835367838546 72.10000101725261,42.720835367838546 72.10000101725261,42.720835367838546 Z" fill="#000000"/>
		</g>
		<g transform="matrix(1,0,0,1,48.298957825,0)">
			<path d="M16.953125,56.39500427246094 C16.953125,56.39500427246094 16.953125,7.5981292724609375 16.953125,7.5981292724609375 C16.953125,7.5981292724609375 48.59375,7.5981292724609375 48.59375,7.5981292724609375 C48.59375,7.5981292724609375 48.59375,11.738754272460938 48.59375,11.738754272460938 C48.59375,11.738754272460938 21.5,11.738754272460938 21.5,11.738754272460938 C21.5,11.738754272460938 21.5,29.520004272460938 21.5,29.520004272460938 C21.5,29.520004272460938 45.015625,29.520004272460938 45.015625,29.520004272460938 C45.015625,29.520004272460938 45.015625,33.64500427246094 45.015625,33.64500427246094 C45.015625,33.64500427246094 21.5,33.64500427246094 21.5,33.64500427246094 C21.5,33.64500427246094 21.5,56.39500427246094 21.5,56.39500427246094 C21.5,56.39500427246094 16.953125,56.39500427246094 16.953125,56.39500427246094 Z" fill="#bdbdbd" stroke="#636363" stroke-width="4" style="paint-order: stroke;" />
		</g>
		<g transform="matrix(1,0,0,1,48.298957825,0)">
			<path d="M0,-8 C4.414278222232112,-8 8,-4.414278222232112 8,0 C8,4.414278222232112 4.414278222232112,8 0,8 C-4.414278222232112,8 -8,4.414278222232112 -8,0 C-8,-4.414278222232112 -4.414278222232112,-8 0,-8 Z" transform="matrix(1,0,0,1,19,9.668441772)" fill="#bdbdbd"/>
			<path d="M0,-8 C4.414278222232112,-8 8,-4.414278222232112 8,0 C8,4.414278222232112 4.414278222232112,8 0,8 C-4.414278222232112,8 -8,4.414278222232112 -8,0 C-8,-4.414278222232112 -4.414278222232112,-8 0,-8 Z" transform="matrix(1,0,0,1,19,9.668441772)" clip-path="url(#alignment-7275898684500556717)" fill="none" stroke="#636363" stroke-width="4"/>
			<path d="M0,-8 C4.414278222232112,-8 8,-4.414278222232112 8,0 C8,4.414278222232112 4.414278222232112,8 0,8 C-4.414278222232112,8 -8,4.414278222232112 -8,0 C-8,-4.414278222232112 -4.414278222232112,-8 0,-8 Z" transform="matrix(1,0,0,1,19,31.582504272)" fill="#bdbdbd"/>
			<path d="M0,-8 C4.414278222232112,-8 8,-4.414278222232112 8,0 C8,4.414278222232112 4.414278222232112,8 0,8 C-4.414278222232112,8 -8,4.414278222232112 -8,0 C-8,-4.414278222232112 -4.414278222232112,-8 0,-8 Z" transform="matrix(1,0,0,1,19,31.582504272)" clip-path="url(#alignment-17184691743250471819)" fill="none" stroke="#636363" stroke-width="4"/>
		</g>
		<g transform="matrix(1,0,0,1,48.298957825,0)">
			<path d="M0,-8 C4.414278222232112,-8 8,-4.414278222232112 8,0 C8,4.414278222232112 4.414278222232112,8 0,8 C-4.414278222232112,8 -8,4.414278222232112 -8,0 C-8,-4.414278222232112 -4.414278222232112,-8 0,-8 Z" transform="matrix(1,0,0,1,19,55)" fill="#bdbdbd"/>
			<path d="M0,-8 C4.414278222232112,-8 8,-4.414278222232112 8,0 C8,4.414278222232112 4.414278222232112,8 0,8 C-4.414278222232112,8 -8,4.414278222232112 -8,0 C-8,-4.414278222232112 -4.414278222232112,-8 0,-8 Z" transform="matrix(1,0,0,1,19,55)" clip-path="url(#alignment-681173341472781659)" fill="none" stroke="#636363" stroke-width="4"/>
			<path d="M0,-8 C4.414278222232112,-8 8,-4.414278222232112 8,0 C8,4.414278222232112 4.414278222232112,8 0,8 C-4.414278222232112,8 -8,4.414278222232112 -8,0 C-8,-4.414278222232112 -4.414278222232112,-8 0,-8 Z" transform="matrix(1,0,0,1,19,55)" fill="#bdbdbd"/>
			<path d="M0,-8 C4.414278222232112,-8 8,-4.414278222232112 8,0 C8,4.414278222232112 4.414278222232112,8 0,8 C-4.414278222232112,8 -8,4.414278222232112 -8,0 C-8,-4.414278222232112 -4.414278222232112,-8 0,-8 Z" transform="matrix(1,0,0,1,19,55)" clip-path="url(#alignment-16211296506679000636)" fill="none" stroke="#636363" stroke-width="4"/>
		</g>
	</g>
</g></g></svg>