<svg xmlns="http://www.w3.org/2000/svg" viewBox="0 0 511 511" width="511" height="511"><defs></defs><g>
<g>
	<g>
		<g>
			<path d="M256,46 C371.87475308552666,46 466,140.12524691447254 466,256 C466,371.87475308552666 371.87475308552746,466 256,466 C140.12524691447337,466 46,371.87475308552746 46,255.99999999999997 C46,140.12524691447337 140.12524691447257,46 256,46 L256,46 ZM256,66 C151.16084331620706,66 66,151.1608433162108 66,255.99999999999997 C66,360.83915668379 151.16084331620792,446 256,446 C360.83915668379296,446 446,360.8391566837892 446,256 C446,151.16084331620993 360.8391566837921,66 256,66 L256,66 Z" fill="#601048" stroke="#2b0821" stroke-width="12" style="paint-order: stroke;" />
		</g>
		<g>
			<path d="M0,-50 C27.5892388889507,-50 50,-27.5892388889507 50,0 C50,27.5892388889507 27.5892388889507,50 0,50 C-27.5892388889507,50 -50,27.5892388889507 -50,0 C-50,-27.5892388889507 -27.5892388889507,-50 0,-50 Z" transform="matrix(1,0,0,1,256,56)" fill="#601048" stroke="#2b0821" stroke-width="6"/>
			<path d="M0,-50 C27.5892388889507,-50 50,-27.5892388889507 50,0 C50,27.5892388889507 27.5892388889507,50 0,50 C-27.5892388889507,50 -50,27.5892388889507 -50,0 C-50,-27.5892388889507 -27.5892388889507,-50 0,-50 Z" transform="matrix(1,0,0,1,446.211303259,194.196601125)" fill="#601048" stroke="#2b0821" stroke-width="6"/>
			<path d="M0,-50 C27.5892388889507,-50 50,-27.5892388889507 50,0 C50,27.5892388889507 27.5892388889507,50 0,50 C-27.5892388889507,50 -50,27.5892388889507 -50,0 C-50,-27.5892388889507 -27.5892388889507,-50 0,-50 Z" transform="matrix(1,0,0,1,373.557050458,417.803398875)" fill="#601048" stroke="#2b0821" stroke-width="6"/>
			<path d="M0,-50 C27.5892388889507,-50 50,-27.5892388889507 50,0 C50,27.5892388889507 27.5892388889507,50 0,50 C-27.5892388889507,50 -50,27.5892388889507 -50,0 C-50,-27.5892388889507 -27.5892388889507,-50 0,-50 Z" transform="matrix(1,0,0,1,138.442949542,417.803398875)" fill="#601048" stroke="#2b0821" stroke-width="6"/>
			<path d="M0,-50 C27.5892388889507,-50 50,-27.5892388889507 50,0 C50,27.5892388889507 27.5892388889507,50 0,50 C-27.5892388889507,50 -50,27.5892388889507 -50,0 C-50,-27.5892388889507 -27.5892388889507,-50 0,-50 Z" transform="matrix(1,0,0,1,65.788696741,194.196601125)" fill="#601048" stroke="#2b0821" stroke-width="6"/>
		</g>
	</g>
</g></g></svg>