<svg xmlns="http://www.w3.org/2000/svg" viewBox="0 0 511 511" width="511" height="511"><defs></defs><g>
<g>
	<g>
		<g>
			<path d="M464.6602540378444,261 L364.6602540378444,434.2050807568877 L361.7735026918963,439.2050807568877 L356,439.2050807568877 L156.00000000000006,439.2050807568878 L150.22649730810377,439.2050807568878 L147.33974596215566,434.2050807568878 L47.339745962155604,261.00000000000006 L44.45299461620746,256.00000000000006 L47.339745962155604,251.00000000000006 L147.33974596215552,77.79491924311233 L150.22649730810366,72.79491924311233 L155.99999999999991,72.79491924311233 L355.9999999999999,72.79491924311216 L361.7735026918961,72.79491924311216 L364.66025403784425,77.79491924311216 L464.6602540378444,250.99999999999997 L467.54700538379257,255.99999999999997 L464.6602540378444,261 ZM447.3397459621556,250.99999999999997 L447.3397459621556,261 L347.33974596215546,87.79491924311216 L355.9999999999999,92.79491924311216 L155.99999999999991,92.79491924311233 L164.6602540378443,87.79491924311233 L64.6602540378444,261.00000000000006 L64.6602540378444,251.00000000000006 L164.66025403784442,424.2050807568878 L156.00000000000006,419.2050807568878 L356,419.2050807568877 L347.33974596215563,424.2050807568877 L447.3397459621556,250.99999999999997 Z" fill="#601048" stroke="#2b0821" stroke-width="12" style="paint-order: stroke;" />
		</g>
		<g>
			<path d="M0,-50 C27.5892388889507,-50 50,-27.5892388889507 50,0 C50,27.5892388889507 27.5892388889507,50 0,50 C-27.5892388889507,50 -50,27.5892388889507 -50,0 C-50,-27.5892388889507 -27.5892388889507,-50 0,-50 Z" transform="matrix(1,0,0,1,456,256)" fill="#601048" stroke="#2b0821" stroke-width="6"/>
			<path d="M0,-50 C27.5892388889507,-50 50,-27.5892388889507 50,0 C50,27.5892388889507 27.5892388889507,50 0,50 C-27.5892388889507,50 -50,27.5892388889507 -50,0 C-50,-27.5892388889507 -27.5892388889507,-50 0,-50 Z" transform="matrix(1,0,0,1,356,429.205080757)" fill="#601048" stroke="#2b0821" stroke-width="6"/>
			<path d="M0,-50 C27.5892388889507,-50 50,-27.5892388889507 50,0 C50,27.5892388889507 27.5892388889507,50 0,50 C-27.5892388889507,50 -50,27.5892388889507 -50,0 C-50,-27.5892388889507 -27.5892388889507,-50 0,-50 Z" transform="matrix(1,0,0,1,156,429.205080757)" fill="#601048" stroke="#2b0821" stroke-width="6"/>
			<path d="M0,-50 C27.5892388889507,-50 50,-27.5892388889507 50,0 C50,27.5892388889507 27.5892388889507,50 0,50 C-27.5892388889507,50 -50,27.5892388889507 -50,0 C-50,-27.5892388889507 -27.5892388889507,-50 0,-50 Z" transform="matrix(1,0,0,1,56,256)" fill="#601048" stroke="#2b0821" stroke-width="6"/>
			<path d="M0,-50 C27.5892388889507,-50 50,-27.5892388889507 50,0 C50,27.5892388889507 27.5892388889507,50 0,50 C-27.5892388889507,50 -50,27.5892388889507 -50,0 C-50,-27.5892388889507 -27.5892388889507,-50 0,-50 Z" transform="matrix(1,0,0,1,156,82.794919243)" fill="#601048" stroke="#2b0821" stroke-width="6"/>
			<path d="M0,-50 C27.5892388889507,-50 50,-27.5892388889507 50,0 C50,27.5892388889507 27.5892388889507,50 0,50 C-27.5892388889507,50 -50,27.5892388889507 -50,0 C-50,-27.5892388889507 -27.5892388889507,-50 0,-50 Z" transform="matrix(1,0,0,1,356,82.794919243)" fill="#601048" stroke="#2b0821" stroke-width="6"/>
		</g>
	</g>
</g></g></svg>