<svg xmlns="http://www.w3.org/2000/svg" viewBox="0 0 850 512" width="850" height="512">
	<defs></defs>
	<g>
		<style>
			text {
			font: 580px sans-serif;
			fill: #db7533;
			}
			.ql {
			font: 300px sans-serif;
			fill: #000000;
			}
		</style>
		<g>
			<!-- <g>
				<path
					d="M337.733888252056,80.29211418241857 C236.74642218124677,56.541308468566285
			181.3910917125845,67.7363581020293 158.41822432858385,88.69363784901478
			L161.67314133071656,80.97316425813145 C165.7731573753561,204.12271530369853
			225.51817004862443,203.93232692794257 263.67318133755674,249.58733377127868
			L248.32681866244803,262.4126662287261 C213.5778488503975,220.83321438282303
			146.10865842942206,214.53278281659811 141.68421635261245,81.63865521956416
			L141.53069947249355,77.02756719973061 L144.9391333547452,73.91818162868086
			C174.03787328847477,47.37249959071883 235.84354649031144,35.78328614010951
			342.31267446875563,60.82330022825633 L337.733888252056,80.29211418241857 Z"
					fill="#db7533" stroke="#ab561f" stroke-width="12" style="paint-order: stroke;" />
				<path
					d="M174.26611174794886,431.7078858175862 C275.25357781875806,455.4586915314385
			330.6089082874203,444.26364189797545 353.5817756714209,423.30636215098997
			L350.32685866928824,431.02683574187336 C346.22684262464867,307.8772846963062
			286.48182995138035,308.0676730720622 248.32681866244806,262.4126662287261
			L263.67318133755674,249.58733377127868 C298.4221511496073,291.16678561718174
			365.8913415705827,297.46721718340666 370.3157836473923,430.3613447804406
			L370.4693005275113,434.97243280027413 L367.06086664525964,438.0818183713239
			C337.96212671153006,464.6275004092859 276.1564535096934,476.2167138598952
			169.6873255312492,451.1766997717485 L174.26611174794886,431.7078858175862 Z"
					fill="#db7533" stroke="#ab561f" stroke-width="12" style="paint-order: stroke;" />
			</g> -->
			<g>
				<!-- <path
					d="M0,-50 C27.5892388889507,-50 50,-27.5892388889507 50,0 C50,27.5892388889507 27.5892388889507,50
				0,50 C-27.5892388889507,50 -50,27.5892388889507 -50,0 C-50,-27.5892388889507
				-27.5892388889507,-50 0,-50 Z"
					transform="matrix(1,0,0,1,340.02328136,70.557707205)" fill="#db7533"
					stroke="#ab561f" stroke-width="6" />
				<path
					d="M0,-50 C27.5892388889507,-50 50,-27.5892388889507 50,0 C50,27.5892388889507 27.5892388889507,50
				0,50 C-27.5892388889507,50 -50,27.5892388889507 -50,0 C-50,-27.5892388889507
				-27.5892388889507,-50 0,-50 Z"
					transform="matrix(1,0,0,1,151.678678842,81.305909739)" fill="#db7533"
					stroke="#ab561f" stroke-width="6" />
				<path
					d="M0,-50 C27.5892388889507,-50 50,-27.5892388889507 50,0 C50,27.5892388889507 27.5892388889507,50
				0,50 C-27.5892388889507,50 -50,27.5892388889507 -50,0 C-50,-27.5892388889507
				-27.5892388889507,-50 0,-50 Z"
					transform="matrix(1,0,0,1,256,256)" fill="#db7533" stroke="#ab561f"
					stroke-width="6" />
				<path
					d="M0,-50 C27.5892388889507,-50 50,-27.5892388889507 50,0 C50,27.5892388889507 27.5892388889507,50
				0,50 C-27.5892388889507,50 -50,27.5892388889507 -50,0 C-50,-27.5892388889507
				-27.5892388889507,-50 0,-50 Z"
					transform="matrix(1,0,0,1,171.97671864,441.442292795)" fill="#db7533"
					stroke="#ab561f" stroke-width="6" />
				<path
					d="M0,-50 C27.5892388889507,-50 50,-27.5892388889507 50,0 C50,27.5892388889507 27.5892388889507,50
				0,50 C-27.5892388889507,50 -50,27.5892388889507 -50,0 C-50,-27.5892388889507
				-27.5892388889507,-50 0,-50 Z"
					transform="matrix(1,0,0,1,360.321321158,430.694090261)" fill="#db7533"
					stroke="#ab561f" stroke-width="6" />
				<path
					d="M0,-50 C27.5892388889507,-50 50,-27.5892388889507 50,0 C50,27.5892388889507 27.5892388889507,50
				0,50 C-27.5892388889507,50 -50,27.5892388889507 -50,0 C-50,-27.5892388889507
				-27.5892388889507,-50 0,-50 Z"
					transform="matrix(1,0,0,1,256,256)" fill="#db7533" stroke="#ab561f" stroke-width="6" /> -->


			</g>
			<text x="100" y="480">S</text>
			<text x="480" y="480" class="ql">QL</text>
			<circle cx="415" cy="160" r="50" fill="#db7533" stroke="#ab561f"
				stroke-width="6" />
			<!-- <circle cx="300" cy="270" r="50" fill="#db7533" stroke="#ab561f"
				stroke-width="6" /> -->
			<circle cx="155" cy="360" r="50" fill="#db7533" stroke="#ab561f"
				stroke-width="6" />
			<!-- <circle cx="425" cy="390" r="50" fill="#db7533" stroke="#ab561f"
				stroke-width="6" />
			<circle cx="170" cy="190" r="50" fill="#db7533" stroke="#ab561f"
				stroke-width="6" /> -->
		</g>
	</g>
</svg>