<svg xmlns="http://www.w3.org/2000/svg" viewBox="0 0 511 511" width="511" height="511">
	<defs></defs>
	<g>
		<g>
			<g transform="matrix(1,0,0,1,0,-49.814094478)">
				<g>
					<path
						d="M83.43891486321303,146.3718110446223 L428.56108513678674,146.37181104462252 L428.56108513678674,166.37181104462252 L83.43891486321303,166.3718110446223 L83.43891486321303,146.3718110446223 Z"
						fill="#106050" stroke-width="1000"
						style="paint-order: stroke;" />
				</g>
				<g>
					<path
						d="M265.99999999999983,156.37181104462238 L265.9999999999999,455.2563779107557 L245.99999999999991,455.2563779107557 L245.99999999999983,156.37181104462238 L265.99999999999983,156.37181104462238 Z"
						fill="#106050" stroke-width="40"
						style="paint-order: stroke;" />
				</g>
			</g>
			<!-- <g transform="matrix(1,0,0,1,0,-49.814094478)">
		<path d="M0,-50 C27.5892388889507,-50 50,-27.5892388889507 50,0 C50,27.5892388889507
			27.5892388889507,50 0,50 C-27.5892388889507,50 -50,27.5892388889507 -50,0
			C-50,-27.5892388889507 -27.5892388889507,-50 0,-50 Z"
			transform="matrix(1,0,0,1,256,305.813880699)" fill="#106050" stroke="#001d10"
			stroke-width="6"/>
	</g> -->
			<g transform="matrix(1,0,0,1,0,-49.814094478)">
				<path
					d="M0,-50 C27.5892388889507,-50 50,-27.5892388889507 50,0 C50,27.5892388889507 27.5892388889507,50 0,50 C-27.5892388889507,50 -50,27.5892388889507 -50,0 C-50,-27.5892388889507 -27.5892388889507,-50 0,-50 Z"
					transform="matrix(1,0,0,1,256,156.371811045)" fill="#106050" stroke="#001d10"
					stroke-width="6" />
				<path
					d="M0,-50 C27.5892388889507,-50 50,-27.5892388889507 50,0 C50,27.5892388889507 27.5892388889507,50 0,50 C-27.5892388889507,50 -50,27.5892388889507 -50,0 C-50,-27.5892388889507 -27.5892388889507,-50 0,-50 Z"
					transform="matrix(1,0,0,1,256,455.256377911)" fill="#106050" stroke="#001d10"
					stroke-width="6" />
			</g>
			<g transform="matrix(1,0,0,1,0,-49.814094478)">
				<path
					d="M0,-50 C27.5892388889507,-50 50,-27.5892388889507 50,0 C50,27.5892388889507 27.5892388889507,50 0,50 C-27.5892388889507,50 -50,27.5892388889507 -50,0 C-50,-27.5892388889507 -27.5892388889507,-50 0,-50 Z"
					transform="matrix(1,0,0,1,83.438914863,156.371811045)" fill="#106050"
					stroke="#001d10" stroke-width="6" />
				<path
					d="M0,-50 C27.5892388889507,-50 50,-27.5892388889507 50,0 C50,27.5892388889507 27.5892388889507,50 0,50 C-27.5892388889507,50 -50,27.5892388889507 -50,0 C-50,-27.5892388889507 -27.5892388889507,-50 0,-50 Z"
					transform="matrix(1,0,0,1,428.561085137,156.371811045)" fill="#106050"
					stroke="#001d10" stroke-width="6" />
			</g>
		</g>
	</g>
</svg>