<svg xmlns="http://www.w3.org/2000/svg" viewBox="0 0 200 64" width="200" height="64" role="img" aria-labelledby="title">
  <title id="title">Path logo (dark mode)</title>
  <!-- Generated by generate.mjs from logos.config.json. Do not edit by hand. -->
  <g transform="translate(61.041 0)">
    <g fill="#bdbdbd" stroke="#636363" stroke-width="4" stroke-linejoin="round" paint-order="stroke fill">
      <path class="logo-initial" d="M129 0L129 1490L696 1490Q862 1490 981 1430.5Q1100 1371 1163.5 1263Q1227 1155 1227 1010Q1227 864 1162 756Q1097 648 977 588.5Q857 529 691 529L282 529L282 753L676 753Q768 753 832 785Q896 817 930 874.5Q964 932 964 1010Q964 1088 930 1145Q896 1202 832 1233.5Q768 1265 676 1265L395 1265L395 0Z" transform="translate(-4.409 57) scale(0.034 -0.034)"/>
    </g>
    <g fill="#ffffff">
      <path class="logo-text" d="M450 -20Q344 -20 260 17Q176 54 127 127.5Q78 201 78 308Q78 401 113.5 460Q149 519 209.5 554Q270 589 346 606.5Q422 624 502 633Q601 646 660.5 653.5Q720 661 747 678Q774 695 774 733L774 741Q774 797 749 838.5Q724 880 676.5 902.5Q629 925 560 925Q490 925 438.5 903Q387 881 355.5 844.5Q324 808 314 763L107 787Q127 888 189.5 958Q252 1028 347.5 1064.5Q443 1101 560 1101Q644 1101 721 1080Q798 1059 858 1015Q918 971 952.5 901Q987 831 987 732L987 0L777 0L777 151L770 151Q748 108 707.5 69Q667 30 604 5Q541 -20 450 -20ZM495 152Q587 152 649 186.5Q711 221 742.5 277.5Q774 334 774 399L774 531Q763 521 734.5 512.5Q706 504 667.5 497Q629 490 588.5 484Q548 478 513 473Q454 465 403 446.5Q352 428 321.5 394Q291 360 291 305Q291 256 317 222Q343 188 388.5 170Q434 152 495 152Z" transform="translate(38.529 57) scale(0.015 -0.015)"/>
      <path class="logo-text" d="M627 1084L627 907L18 907L18 1084ZM194 1362L409 1362L409 290Q409 227 435 200Q461 173 525 173Q546 173 574.5 175Q603 177 624 179L641 3Q611 -2 572.5 -4Q534 -6 499 -6Q348 -6 271 63Q194 132 194 266Z" transform="translate(55.467 57) scale(0.015 -0.015)"/>
      <path class="logo-text" d="M347 632L347 0L132 0L132 1490L346 1490L346 816L304 816Q354 962 447 1031.5Q540 1101 671 1101Q782 1101 868.5 1053.5Q955 1006 1004 913Q1053 820 1053 681L1053 0L837 0L837 655Q837 779 775.5 845Q714 911 604 911Q531 911 473 880.5Q415 850 381 788Q347 726 347 632Z" transform="translate(65.851 57) scale(0.015 -0.015)"/>
    </g>
    <circle cx="4.128" cy="10.146" r="8" fill="#636363" stroke="#636363" stroke-width="0"/>
    <circle cx="4.128" cy="52.926" r="8" fill="#636363" stroke="#636363" stroke-width="0"/>
    <circle cx="31.9" cy="21.351" r="8" fill="#636363" stroke="#636363" stroke-width="0"/>
    
  </g>
  
</svg>
