<svg xmlns="http://www.w3.org/2000/svg" viewBox="0 0 190 64" width="190" height="64"><defs><clipPath id="alignment-13589051988386386897">
<path d="M0,-8 C4.414278222232112,-8 8,-4.414278222232112 8,0 C8,4.414278222232112 4.414278222232112,8 0,8 C-4.414278222232112,8 -8,4.414278222232112 -8,0 C-8,-4.414278222232112 -4.414278222232112,-8 0,-8 Z" fill="#000000"/></clipPath><clipPath id="alignment-5138533102646692730">
<path d="M0,-8 C4.414278222232112,-8 8,-4.414278222232112 8,0 C8,4.414278222232112 4.414278222232112,8 0,8 C-4.414278222232112,8 -8,4.414278222232112 -8,0 C-8,-4.414278222232112 -4.414278222232112,-8 0,-8 Z" fill="#000000"/></clipPath></defs><g>
<g>
	<g>
		<g transform="matrix(1,0,0,1,-2.966669718,0)">
			<path d="M66.33333333333333,56.91875203450521 Q64.33333333333333,56.91875203450521 62.864583333333336,56.252085367838546 Q61.395833333333336,55.585418701171875 60.427083333333336,54.408335367838546 Q59.46875,53.220835367838546 58.979166666666664,51.70000203450521 Q58.5,50.179168701171875 58.5,48.51250203450521 Q58.5,46.845835367838546 58.96875,45.304168701171875 Q59.4375,43.752085367838546 60.364583333333336,42.533335367838546 Q61.302083333333336,41.314585367838546 62.71875,40.60625203450521 Q64.13541666666667,39.88750203450521 66.0625,39.88750203450521 Q68,39.88750203450521 69.39583333333333,40.533335367838546 Q70.80208333333334,41.179168701171875 71.69791666666667,42.335418701171875 Q72.60416666666667,43.48125203450521 73.05208333333334,44.91875203450521 Q73.5,46.345835367838546 73.5,47.95000203450521 Q73.5,48.116668701171875 73.47916666666667,48.564585367838546 Q73.46875,49.01250203450521 73.39583333333334,49.41875203450521 Q61.770833333333336,49.41875203450521 61.770833333333336,49.41875203450521 Q61.864583333333336,51.616668701171875 63.114583333333336,52.804168701171875 Q64.36458333333333,53.98125203450521 66.4375,53.98125203450521 Q67.83333333333333,53.98125203450521 68.92708333333333,53.533335367838546 Q70.03125,53.085418701171875 70.96875,52.116668701171875 Q72.96875,54.179168701171875 72.96875,54.179168701171875 Q72,55.147918701171875 70.97916666666667,55.752085367838546 Q69.96875,56.345835367838546 68.84375,56.627085367838546 Q67.72916666666667,56.91875203450521 66.33333333333333,56.91875203450521 Q66.33333333333333,56.91875203450521 66.33333333333333,56.91875203450521 ZM70.27083333333333,47.783335367838546 Q70.33333333333334,47.51250203450521 70.34375,47.252085367838546 Q70.36458333333334,46.98125203450521 70.36458333333334,46.720835367838546 Q70.36458333333334,45.95000203450521 70.09375,45.220835367838546 Q69.83333333333333,44.48125203450521 69.30208333333333,43.897918701171875 Q68.77083333333333,43.314585367838546 67.97916666666667,42.970835367838546 Q67.19791666666667,42.616668701171875 66.16666666666667,42.616668701171875 Q64.80208333333333,42.616668701171875 63.833333333333336,43.23125203450521 Q62.864583333333336,43.845835367838546 62.34375,44.845835367838546 Q61.833333333333336,45.845835367838546 61.729166666666664,47.01250203450521 Q71.33333333333334,47.01250203450521 71.33333333333334,47.01250203450521 C71.33333333333334,47.01250203450521 70.27083333333333,47.783335367838546 70.27083333333333,47.783335367838546 ZM77.27083333333334,56.616668701171875 C77.27083333333334,56.616668701171875 77.27083333333334,40.179168701171875 77.27083333333334,40.179168701171875 C77.27083333333334,40.179168701171875 80.5625,40.179168701171875 80.5625,40.179168701171875 C80.5625,40.179168701171875 80.5625,44.616668701171875 80.5625,44.616668701171875 C80.5625,44.616668701171875 79.86458333333334,44.752085367838546 79.86458333333334,44.752085367838546 Q80.03125,43.283335367838546 80.875,42.20000203450521 Q81.72916666666667,41.116668701171875 82.89583333333334,40.502085367838546 Q84.0625,39.88750203450521 85.19791666666667,39.88750203450521 Q86,39.88750203450521 86.71875,40.07500203450521 Q87.4375,40.252085367838546 88.16666666666667,40.679168701171875 Q86.5625,43.616668701171875 86.5625,43.616668701171875 Q86.19791666666667,43.41875203450521 85.625,43.283335367838546 Q85.0625,43.147918701171875 84.5625,43.147918701171875 Q83.80208333333334,43.147918701171875 83.0625,43.41875203450521 Q82.33333333333334,43.679168701171875 81.75,44.283335367838546 Q81.16666666666667,44.88750203450521 80.86458333333334,45.845835367838546 Q80.72916666666667,46.314585367838546 80.64583333333334,47.064585367838546 Q80.5625,47.814585367838546 80.5625,49.116668701171875 Q80.5625,56.616668701171875 80.5625,56.616668701171875 C80.5625,56.616668701171875 77.27083333333334,56.616668701171875 77.27083333333334,56.616668701171875 ZM90.99583435058594,56.616668701171875 C90.99583435058594,56.616668701171875 90.99583435058594,40.179168701171875 90.99583435058594,40.179168701171875 C90.99583435058594,40.179168701171875 94.26666768391928,40.179168701171875 94.26666768391928,40.179168701171875 C94.26666768391928,40.179168701171875 94.26666768391928,56.616668701171875 94.26666768391928,56.616668701171875 C94.26666768391928,56.616668701171875 90.99583435058594,56.616668701171875 90.99583435058594,56.616668701171875 ZM90.76666768391928,37.345835367838546 C90.76666768391928,37.345835367838546 90.76666768391928,33.38750203450521 90.76666768391928,33.38750203450521 C90.76666768391928,33.38750203450521 94.46458435058594,33.38750203450521 94.46458435058594,33.38750203450521 C94.46458435058594,33.38750203450521 94.46458435058594,37.345835367838546 94.46458435058594,37.345835367838546 C94.46458435058594,37.345835367838546 90.76666768391928,37.345835367838546 90.76666768391928,37.345835367838546 ZM103.89583333333334,56.616668701171875 C103.89583333333334,56.616668701171875 97.16666666666667,40.179168701171875 97.16666666666667,40.179168701171875 C97.16666666666667,40.179168701171875 100.77083333333334,40.179168701171875 100.77083333333334,40.179168701171875 C100.77083333333334,40.179168701171875 105.22916666666667,52.38750203450521 105.22916666666667,52.38750203450521 C105.22916666666667,52.38750203450521 109.77083333333334,40.179168701171875 109.77083333333334,40.179168701171875 C109.77083333333334,40.179168701171875 113.30208333333334,40.179168701171875 113.30208333333334,40.179168701171875 C113.30208333333334,40.179168701171875 106.63541666666667,56.616668701171875 106.63541666666667,56.616668701171875 C106.63541666666667,56.616668701171875 103.89583333333334,56.616668701171875 103.89583333333334,56.616668701171875 ZM126.83333333333334,56.616668701171875 C126.83333333333334,56.616668701171875 126.56250000000001,53.585418701171875 126.56250000000001,53.585418701171875 C126.56250000000001,53.585418701171875 126.56250000000001,46.283335367838546 126.56250000000001,46.283335367838546 Q126.56250000000001,44.554168701171875 125.56250000000001,43.616668701171875 Q124.56250000000001,42.679168701171875 122.66666666666667,42.679168701171875 Q121.33333333333334,42.679168701171875 120.11458333333334,43.220835367838546 Q118.89583333333334,43.752085367838546 117.80208333333334,44.95000203450521 Q115.77083333333334,42.845835367838546 115.77083333333334,42.845835367838546 Q117.22916666666667,41.314585367838546 119.01041666666667,40.60625203450521 Q120.80208333333334,39.88750203450521 122.89583333333334,39.88750203450521 Q126.19791666666667,39.88750203450521 128.01041666666669,41.57500203450521 Q129.83333333333334,43.252085367838546 129.83333333333334,46.283335367838546 Q129.83333333333334,56.616668701171875 129.83333333333334,56.616668701171875 C129.83333333333334,56.616668701171875 126.83333333333334,56.616668701171875 126.83333333333334,56.616668701171875 ZM121.53125000000001,56.91875203450521 Q119.69791666666667,56.91875203450521 118.29166666666667,56.252085367838546 Q116.89583333333334,55.585418701171875 116.125,54.408335367838546 Q115.36458333333334,53.220835367838546 115.36458333333334,51.647918701171875 Q115.36458333333334,50.283335367838546 115.92708333333334,49.304168701171875 Q116.5,48.314585367838546 117.39583333333334,47.783335367838546 Q118.22916666666667,47.252085367838546 119.3125,47.033335367838546 Q120.39583333333334,46.814585367838546 121.63541666666667,46.814585367838546 Q126.86458333333334,46.814585367838546 126.86458333333334,46.814585367838546 C126.86458333333334,46.814585367838546 126.86458333333334,49.283335367838546 126.86458333333334,49.283335367838546 C126.86458333333334,49.283335367838546 122.10416666666667,49.283335367838546 122.10416666666667,49.283335367838546 Q121.43750000000001,49.283335367838546 120.71875,49.397918701171875 Q120,49.51250203450521 119.5,49.88750203450521 Q119.10416666666667,50.179168701171875 118.86458333333334,50.63750203450521 Q118.63541666666667,51.085418701171875 118.63541666666667,51.679168701171875 Q118.63541666666667,52.845835367838546 119.53125,53.554168701171875 Q120.4375,54.252085367838546 121.93750000000001,54.252085367838546 Q123.19791666666667,54.252085367838546 124.25000000000001,53.66875203450521 Q125.30208333333334,53.085418701171875 125.92708333333334,52.07500203450521 Q126.56250000000001,51.054168701171875 126.56250000000001,49.752085367838546 Q127.72916666666667,51.283335367838546 127.72916666666667,51.283335367838546 Q127.43750000000001,53.01250203450521 126.56250000000001,54.304168701171875 Q125.69791666666667,55.585418701171875 124.41666666666667,56.252085367838546 Q123.13541666666667,56.91875203450521 121.53125000000001,56.91875203450521 Q121.53125000000001,56.91875203450521 121.53125000000001,56.91875203450521 ZM139.8999989827474,56.91875203450521 Q138.70208231608075,56.91875203450521 137.6812489827474,56.45000203450521 Q136.67083231608075,55.98125203450521 136.0874989827474,54.939585367838546 Q135.50416564941406,53.88750203450521 135.50416564941406,52.220835367838546 Q135.50416564941406,35.98125203450521 135.50416564941406,35.98125203450521 C135.50416564941406,35.98125203450521 138.79583231608075,34.147918701171875 138.79583231608075,34.147918701171875 C138.79583231608075,34.147918701171875 138.79583231608075,51.345835367838546 138.79583231608075,51.345835367838546 Q138.79583231608075,52.720835367838546 139.2124989827474,53.470835367838546 Q139.62916564941406,54.220835367838546 140.76458231608075,54.220835367838546 Q141.09791564941406,54.220835367838546 141.54583231608075,54.13750203450521 Q142.00416564941406,54.054168701171875 142.53541564941406,53.91875203450521 Q142.53541564941406,56.45000203450521 142.53541564941406,56.45000203450521 Q141.8687489827474,56.679168701171875 141.20208231608075,56.79375203450521 Q140.53541564941406,56.91875203450521 139.8999989827474,56.91875203450521 Q139.8999989827474,56.91875203450521 139.8999989827474,56.91875203450521 ZM132.23333231608075,42.720835367838546 C132.23333231608075,42.720835367838546 132.23333231608075,40.179168701171875 132.23333231608075,40.179168701171875 C132.23333231608075,40.179168701171875 142.53541564941406,40.179168701171875 142.53541564941406,40.179168701171875 C142.53541564941406,40.179168701171875 142.53541564941406,42.720835367838546 142.53541564941406,42.720835367838546 C142.53541564941406,42.720835367838546 132.23333231608075,42.720835367838546 132.23333231608075,42.720835367838546 ZM145.89583333333334,56.616668701171875 C145.89583333333334,56.616668701171875 145.89583333333334,40.179168701171875 145.89583333333334,40.179168701171875 C145.89583333333334,40.179168701171875 149.16666666666669,40.179168701171875 149.16666666666669,40.179168701171875 C149.16666666666669,40.179168701171875 149.16666666666669,56.616668701171875 149.16666666666669,56.616668701171875 C149.16666666666669,56.616668701171875 145.89583333333334,56.616668701171875 145.89583333333334,56.616668701171875 ZM145.66666666666669,37.345835367838546 C145.66666666666669,37.345835367838546 145.66666666666669,33.38750203450521 145.66666666666669,33.38750203450521 C145.66666666666669,33.38750203450521 149.36458333333334,33.38750203450521 149.36458333333334,33.38750203450521 C149.36458333333334,33.38750203450521 149.36458333333334,37.345835367838546 149.36458333333334,37.345835367838546 C149.36458333333334,37.345835367838546 145.66666666666669,37.345835367838546 145.66666666666669,37.345835367838546 ZM158.79583740234375,56.616668701171875 C158.79583740234375,56.616668701171875 152.0666707356771,40.179168701171875 152.0666707356771,40.179168701171875 C152.0666707356771,40.179168701171875 155.67083740234375,40.179168701171875 155.67083740234375,40.179168701171875 C155.67083740234375,40.179168701171875 160.1291707356771,52.38750203450521 160.1291707356771,52.38750203450521 C160.1291707356771,52.38750203450521 164.67083740234375,40.179168701171875 164.67083740234375,40.179168701171875 C164.67083740234375,40.179168701171875 168.20208740234375,40.179168701171875 168.20208740234375,40.179168701171875 C168.20208740234375,40.179168701171875 161.5354207356771,56.616668701171875 161.5354207356771,56.616668701171875 C161.5354207356771,56.616668701171875 158.79583740234375,56.616668701171875 158.79583740234375,56.616668701171875 ZM177.7666727701823,56.91875203450521 Q175.7666727701823,56.91875203450521 174.2979227701823,56.252085367838546 Q172.8291727701823,55.585418701171875 171.8604227701823,54.408335367838546 Q170.90208943684897,53.220835367838546 170.41250610351563,51.70000203450521 Q169.93333943684897,50.179168701171875 169.93333943684897,48.51250203450521 Q169.93333943684897,46.845835367838546 170.40208943684897,45.304168701171875 Q170.87083943684897,43.752085367838546 171.7979227701823,42.533335367838546 Q172.7354227701823,41.314585367838546 174.15208943684897,40.60625203450521 Q175.56875610351563,39.88750203450521 177.49583943684897,39.88750203450521 Q179.43333943684897,39.88750203450521 180.8291727701823,40.533335367838546 Q182.2354227701823,41.179168701171875 183.13125610351563,42.335418701171875 Q184.03750610351563,43.48125203450521 184.4854227701823,44.91875203450521 Q184.93333943684897,46.345835367838546 184.93333943684897,47.95000203450521 Q184.93333943684897,48.116668701171875 184.91250610351563,48.564585367838546 Q184.90208943684897,49.01250203450521 184.8291727701823,49.41875203450521 Q173.2041727701823,49.41875203450521 173.2041727701823,49.41875203450521 Q173.2979227701823,51.616668701171875 174.5479227701823,52.804168701171875 Q175.7979227701823,53.98125203450521 177.87083943684897,53.98125203450521 Q179.2666727701823,53.98125203450521 180.3604227701823,53.533335367838546 Q181.46458943684897,53.085418701171875 182.40208943684897,52.116668701171875 Q184.40208943684897,54.179168701171875 184.40208943684897,54.179168701171875 Q183.43333943684897,55.147918701171875 182.41250610351563,55.752085367838546 Q181.40208943684897,56.345835367838546 180.27708943684897,56.627085367838546 Q179.16250610351563,56.91875203450521 177.7666727701823,56.91875203450521 Q177.7666727701823,56.91875203450521 177.7666727701823,56.91875203450521 ZM181.7041727701823,47.783335367838546 Q181.7666727701823,47.51250203450521 181.77708943684897,47.252085367838546 Q181.7979227701823,46.98125203450521 181.7979227701823,46.720835367838546 Q181.7979227701823,45.95000203450521 181.52708943684897,45.220835367838546 Q181.2666727701823,44.48125203450521 180.7354227701823,43.897918701171875 Q180.2041727701823,43.314585367838546 179.41250610351563,42.970835367838546 Q178.63125610351563,42.616668701171875 177.60000610351563,42.616668701171875 Q176.2354227701823,42.616668701171875 175.2666727701823,43.23125203450521 Q174.2979227701823,43.845835367838546 173.77708943684897,44.845835367838546 Q173.2666727701823,45.845835367838546 173.16250610351563,47.01250203450521 Q182.7666727701823,47.01250203450521 182.7666727701823,47.01250203450521 C182.7666727701823,47.01250203450521 181.7041727701823,47.783335367838546 181.7041727701823,47.783335367838546 Z" fill="#000000"/>
		</g>
		<g transform="matrix(1,0,0,1,-2.966669718,0)">
			<path d="M16.953125,56.39500427246094 C16.953125,56.39500427246094 16.953125,7.5981292724609375 16.953125,7.5981292724609375 C16.953125,7.5981292724609375 30.109375,7.5981292724609375 30.109375,7.5981292724609375 Q41.9375,7.5981292724609375 48.484375,14.082504272460938 Q55.03125,20.551254272460938 55.03125,32.37937927246094 Q55.03125,44.00437927246094 48.546875,50.20750427246094 Q42.078125,56.39500427246094 30.046875,56.39500427246094 Q16.953125,56.39500427246094 16.953125,56.39500427246094 ZM21.5,52.19187927246094 C21.5,52.19187927246094 29.625,52.19187927246094 29.625,52.19187927246094 Q36.265625,52.19187927246094 40.890625,50.09812927246094 Q45.515625,47.98875427246094 47.921875,43.58250427246094 Q50.34375,39.17625427246094 50.34375,32.23875427246094 Q50.34375,25.316879272460938 47.921875,20.770004272460938 Q45.515625,16.207504272460938 40.953125,14.004379272460938 Q36.40625,11.801254272460938 30.046875,11.801254272460938 Q21.5,11.801254272460938 21.5,11.801254272460938 C21.5,11.801254272460938 21.5,52.19187927246094 21.5,52.19187927246094 Z" fill="#9ecae1" stroke="#3182bd" stroke-width="4" style="paint-order: stroke;" />
		</g>
		<g transform="matrix(1,0,0,1,-2.966669718,0)">
			<path d="M0,-8 C4.414278222232112,-8 8,-4.414278222232112 8,0 C8,4.414278222232112 4.414278222232112,8 0,8 C-4.414278222232112,8 -8,4.414278222232112 -8,0 C-8,-4.414278222232112 -4.414278222232112,-8 0,-8 Z" transform="matrix(1,0,0,1,19,55)" fill="#9ecae1"/>
			<path d="M0,-8 C4.414278222232112,-8 8,-4.414278222232112 8,0 C8,4.414278222232112 4.414278222232112,8 0,8 C-4.414278222232112,8 -8,4.414278222232112 -8,0 C-8,-4.414278222232112 -4.414278222232112,-8 0,-8 Z" transform="matrix(1,0,0,1,19,55)" clip-path="url(#alignment-13589051988386386897)" fill="none" stroke="#3182bd" stroke-width="4"/>
			<path d="M0,-8 C4.414278222232112,-8 8,-4.414278222232112 8,0 C8,4.414278222232112 4.414278222232112,8 0,8 C-4.414278222232112,8 -8,4.414278222232112 -8,0 C-8,-4.414278222232112 -4.414278222232112,-8 0,-8 Z" transform="matrix(1,0,0,1,19,10)" fill="#9ecae1"/>
			<path d="M0,-8 C4.414278222232112,-8 8,-4.414278222232112 8,0 C8,4.414278222232112 4.414278222232112,8 0,8 C-4.414278222232112,8 -8,4.414278222232112 -8,0 C-8,-4.414278222232112 -4.414278222232112,-8 0,-8 Z" transform="matrix(1,0,0,1,19,10)" clip-path="url(#alignment-5138533102646692730)" fill="none" stroke="#3182bd" stroke-width="4"/>
		</g>
	</g>
</g></g></svg>