<svg xmlns="http://www.w3.org/2000/svg" viewBox="0 0 190 64" width="190" height="64"><defs><clipPath id="alignment-17928071021787978115">
<path d="M0,-8 C4.414278222232112,-8 8,-4.414278222232112 8,0 C8,4.414278222232112 4.414278222232112,8 0,8 C-4.414278222232112,8 -8,4.414278222232112 -8,0 C-8,-4.414278222232112 -4.414278222232112,-8 0,-8 Z" fill="#000000"/></clipPath><clipPath id="alignment-8522221816086410683">
<path d="M0,-8 C4.414278222232112,-8 8,-4.414278222232112 8,0 C8,4.414278222232112 4.414278222232112,8 0,8 C-4.414278222232112,8 -8,4.414278222232112 -8,0 C-8,-4.414278222232112 -4.414278222232112,-8 0,-8 Z" fill="#000000"/></clipPath></defs><g>
<g>
	<g transform="matrix(1,0,0,1,3.742157807,0)">
		<g transform="matrix(1,0,0,1,0.375489106,0)">
			<path d="M64.27083333333333,63.41875203450521 C64.27083333333333,63.41875203450521 64.27083333333333,40.179168701171875 64.27083333333333,40.179168701171875 C64.27083333333333,40.179168701171875 67.53125,40.179168701171875 67.53125,40.179168701171875 C67.53125,40.179168701171875 67.53125,44.91875203450521 67.53125,44.91875203450521 C67.53125,44.91875203450521 66.60416666666667,44.616668701171875 66.60416666666667,44.616668701171875 Q67.03125,42.98125203450521 67.875,41.95000203450521 Q68.72916666666667,40.91875203450521 69.92708333333333,40.408335367838546 Q71.13541666666667,39.88750203450521 72.60416666666667,39.88750203450521 Q74.80208333333333,39.88750203450521 76.44791666666667,41.002085367838546 Q78.10416666666667,42.116668701171875 79,44.054168701171875 Q79.89583333333334,45.98125203450521 79.89583333333334,48.41875203450521 Q79.89583333333334,51.01250203450521 78.92708333333334,52.929168701171875 Q77.96875,54.845835367838546 76.30208333333334,55.88750203450521 Q74.63541666666667,56.91875203450521 72.60416666666667,56.91875203450521 Q71.13541666666667,56.91875203450521 69.91666666666667,56.35625203450521 Q68.69791666666667,55.783335367838546 67.86458333333333,54.772918701171875 Q67.03125,53.752085367838546 66.69791666666667,52.345835367838546 Q67.53125,51.88750203450521 67.53125,51.88750203450521 C67.53125,51.88750203450521 67.53125,63.41875203450521 67.53125,63.41875203450521 C67.53125,63.41875203450521 64.27083333333333,63.41875203450521 64.27083333333333,63.41875203450521 ZM71.89583333333333,53.91875203450521 Q73.33333333333333,53.91875203450521 74.38541666666667,53.241668701171875 Q75.4375,52.554168701171875 76.03125,51.304168701171875 Q76.63541666666667,50.054168701171875 76.63541666666667,48.41875203450521 Q76.63541666666667,46.783335367838546 76.03125,45.533335367838546 Q75.4375,44.283335367838546 74.38541666666667,43.585418701171875 Q73.33333333333333,42.88750203450521 71.89583333333333,42.88750203450521 Q70.5,42.88750203450521 69.44791666666667,43.585418701171875 Q68.39583333333333,44.283335367838546 67.8125,45.533335367838546 Q67.22916666666667,46.783335367838546 67.22916666666667,48.41875203450521 Q67.22916666666667,50.054168701171875 67.8125,51.304168701171875 Q68.39583333333333,52.554168701171875 69.44791666666667,53.241668701171875 Q70.5,53.91875203450521 71.89583333333333,53.91875203450521 Q71.89583333333333,53.91875203450521 71.89583333333333,53.91875203450521 ZM89.43333307902019,56.91875203450521 Q88.23541641235352,56.91875203450521 87.21458307902019,56.45000203450521 Q86.20416641235352,55.98125203450521 85.62083307902019,54.939585367838546 Q85.03749974568686,53.88750203450521 85.03749974568686,52.220835367838546 Q85.03749974568686,35.98125203450521 85.03749974568686,35.98125203450521 C85.03749974568686,35.98125203450521 88.32916641235352,34.147918701171875 88.32916641235352,34.147918701171875 C88.32916641235352,34.147918701171875 88.32916641235352,51.345835367838546 88.32916641235352,51.345835367838546 Q88.32916641235352,52.720835367838546 88.74583307902019,53.470835367838546 Q89.16249974568686,54.220835367838546 90.29791641235352,54.220835367838546 Q90.63124974568686,54.220835367838546 91.07916641235352,54.13750203450521 Q91.53749974568686,54.054168701171875 92.06874974568686,53.91875203450521 Q92.06874974568686,56.45000203450521 92.06874974568686,56.45000203450521 Q91.40208307902019,56.679168701171875 90.73541641235352,56.79375203450521 Q90.06874974568686,56.91875203450521 89.43333307902019,56.91875203450521 Q89.43333307902019,56.91875203450521 89.43333307902019,56.91875203450521 ZM81.76666641235352,42.720835367838546 C81.76666641235352,42.720835367838546 81.76666641235352,40.179168701171875 81.76666641235352,40.179168701171875 C81.76666641235352,40.179168701171875 92.06874974568686,40.179168701171875 92.06874974568686,40.179168701171875 C92.06874974568686,40.179168701171875 92.06874974568686,42.720835367838546 92.06874974568686,42.720835367838546 C92.06874974568686,42.720835367838546 81.76666641235352,42.720835367838546 81.76666641235352,42.720835367838546 ZM95.42916615804037,56.616668701171875 C95.42916615804037,56.616668701171875 95.42916615804037,40.179168701171875 95.42916615804037,40.179168701171875 C95.42916615804037,40.179168701171875 98.6999994913737,40.179168701171875 98.6999994913737,40.179168701171875 C98.6999994913737,40.179168701171875 98.6999994913737,56.616668701171875 98.6999994913737,56.616668701171875 C98.6999994913737,56.616668701171875 95.42916615804037,56.616668701171875 95.42916615804037,56.616668701171875 ZM95.1999994913737,37.345835367838546 C95.1999994913737,37.345835367838546 95.1999994913737,33.38750203450521 95.1999994913737,33.38750203450521 C95.1999994913737,33.38750203450521 98.89791615804037,33.38750203450521 98.89791615804037,33.38750203450521 C98.89791615804037,33.38750203450521 98.89791615804037,37.345835367838546 98.89791615804037,37.345835367838546 C98.89791615804037,37.345835367838546 95.1999994913737,37.345835367838546 95.1999994913737,37.345835367838546 ZM103.20416768391928,56.616668701171875 C103.20416768391928,56.616668701171875 103.20416768391928,40.179168701171875 103.20416768391928,40.179168701171875 C103.20416768391928,40.179168701171875 106.49583435058594,40.179168701171875 106.49583435058594,40.179168701171875 C106.49583435058594,40.179168701171875 106.49583435058594,44.41875203450521 106.49583435058594,44.41875203450521 C106.49583435058594,44.41875203450521 105.79791768391928,44.647918701171875 105.79791768391928,44.647918701171875 Q106.10000101725261,43.345835367838546 106.63125101725261,42.45000203450521 Q107.16250101725261,41.554168701171875 107.88125101725261,40.991668701171875 Q108.60000101725261,40.41875203450521 109.43333435058594,40.158335367838546 Q110.26666768391928,39.88750203450521 111.13125101725261,39.88750203450521 Q112.56875101725261,39.88750203450521 113.71458435058594,40.439585367838546 Q114.87083435058594,40.98125203450521 115.65208435058594,42.13750203450521 Q116.43333435058594,43.283335367838546 116.70416768391928,45.147918701171875 Q114.82916768391928,45.51250203450521 114.82916768391928,45.51250203450521 Q115.32916768391928,43.585418701171875 116.14166768391928,42.35625203450521 Q116.96458435058594,41.116668701171875 118.14166768391928,40.502085367838546 Q119.32916768391928,39.88750203450521 120.87083435058594,39.88750203450521 Q122.93333435058594,39.88750203450521 124.18333435058594,40.82500203450521 Q125.43333435058594,41.752085367838546 126.01666768391928,43.241668701171875 Q126.60000101725261,44.720835367838546 126.60000101725261,46.48125203450521 Q126.60000101725261,56.616668701171875 126.60000101725261,56.616668701171875 C126.60000101725261,56.616668701171875 123.37083435058594,56.616668701171875 123.37083435058594,56.616668701171875 C123.37083435058594,56.616668701171875 123.37083435058594,47.283335367838546 123.37083435058594,47.283335367838546 Q123.37083435058594,45.845835367838546 123.03750101725261,44.835418701171875 Q122.70416768391928,43.814585367838546 121.99583435058594,43.272918701171875 Q121.29791768391928,42.720835367838546 120.13125101725261,42.720835367838546 Q118.99583435058594,42.720835367838546 118.19375101725261,43.304168701171875 Q117.40208435058594,43.88750203450521 116.98541768391928,45.054168701171875 Q116.56875101725261,46.220835367838546 116.56875101725261,47.95000203450521 Q116.56875101725261,56.616668701171875 116.56875101725261,56.616668701171875 C116.56875101725261,56.616668701171875 113.29791768391928,56.616668701171875 113.29791768391928,56.616668701171875 C113.29791768391928,56.616668701171875 113.29791768391928,47.085418701171875 113.29791768391928,47.085418701171875 Q113.29791768391928,44.88750203450521 112.47500101725261,43.804168701171875 Q111.66250101725261,42.720835367838546 110.13125101725261,42.720835367838546 Q108.99583435058594,42.720835367838546 108.18333435058594,43.304168701171875 Q107.37083435058594,43.88750203450521 106.93333435058594,45.054168701171875 Q106.49583435058594,46.220835367838546 106.49583435058594,47.95000203450521 Q106.49583435058594,56.616668701171875 106.49583435058594,56.616668701171875 C106.49583435058594,56.616668701171875 103.20416768391928,56.616668701171875 103.20416768391928,56.616668701171875 ZM130.92916870117188,56.616668701171875 C130.92916870117188,56.616668701171875 130.92916870117188,40.179168701171875 130.92916870117188,40.179168701171875 C130.92916870117188,40.179168701171875 134.20000203450522,40.179168701171875 134.20000203450522,40.179168701171875 C134.20000203450522,40.179168701171875 134.20000203450522,56.616668701171875 134.20000203450522,56.616668701171875 C134.20000203450522,56.616668701171875 130.92916870117188,56.616668701171875 130.92916870117188,56.616668701171875 ZM130.70000203450522,37.345835367838546 C130.70000203450522,37.345835367838546 130.70000203450522,33.38750203450521 130.70000203450522,33.38750203450521 C130.70000203450522,33.38750203450521 134.39791870117188,33.38750203450521 134.39791870117188,33.38750203450521 C134.39791870117188,33.38750203450521 134.39791870117188,37.345835367838546 134.39791870117188,37.345835367838546 C134.39791870117188,37.345835367838546 130.70000203450522,37.345835367838546 130.70000203450522,37.345835367838546 ZM137.63125101725262,56.616668701171875 C137.63125101725262,56.616668701171875 137.63125101725262,54.345835367838546 137.63125101725262,54.345835367838546 C137.63125101725262,54.345835367838546 147.60000101725262,42.054168701171875 147.60000101725262,42.054168701171875 C147.60000101725262,42.054168701171875 147.79791768391928,42.845835367838546 147.79791768391928,42.845835367838546 C147.79791768391928,42.845835367838546 138.06875101725262,42.845835367838546 138.06875101725262,42.845835367838546 C138.06875101725262,42.845835367838546 138.06875101725262,40.179168701171875 138.06875101725262,40.179168701171875 C138.06875101725262,40.179168701171875 150.79791768391928,40.179168701171875 150.79791768391928,40.179168701171875 C150.79791768391928,40.179168701171875 150.79791768391928,42.585418701171875 150.79791768391928,42.585418701171875 C150.79791768391928,42.585418701171875 140.93333435058594,54.95000203450521 140.93333435058594,54.95000203450521 C140.93333435058594,54.95000203450521 140.73541768391928,53.95000203450521 140.73541768391928,53.95000203450521 C140.73541768391928,53.95000203450521 150.76666768391928,53.95000203450521 150.76666768391928,53.95000203450521 C150.76666768391928,53.95000203450521 150.76666768391928,56.616668701171875 150.76666768391928,56.616668701171875 C150.76666768391928,56.616668701171875 137.63125101725262,56.616668701171875 137.63125101725262,56.616668701171875 ZM161.20000203450522,56.91875203450521 Q159.20000203450522,56.91875203450521 157.73125203450522,56.252085367838546 Q156.26250203450522,55.585418701171875 155.29375203450522,54.408335367838546 Q154.33541870117188,53.220835367838546 153.84583536783856,51.70000203450521 Q153.36666870117188,50.179168701171875 153.36666870117188,48.51250203450521 Q153.36666870117188,46.845835367838546 153.83541870117188,45.304168701171875 Q154.30416870117188,43.752085367838546 155.23125203450522,42.533335367838546 Q156.16875203450522,41.314585367838546 157.58541870117188,40.60625203450521 Q159.00208536783856,39.88750203450521 160.92916870117188,39.88750203450521 Q162.86666870117188,39.88750203450521 164.26250203450522,40.533335367838546 Q165.66875203450522,41.179168701171875 166.56458536783856,42.335418701171875 Q167.47083536783856,43.48125203450521 167.91875203450522,44.91875203450521 Q168.36666870117188,46.345835367838546 168.36666870117188,47.95000203450521 Q168.36666870117188,48.116668701171875 168.34583536783856,48.564585367838546 Q168.33541870117188,49.01250203450521 168.26250203450522,49.41875203450521 Q156.63750203450522,49.41875203450521 156.63750203450522,49.41875203450521 Q156.73125203450522,51.616668701171875 157.98125203450522,52.804168701171875 Q159.23125203450522,53.98125203450521 161.30416870117188,53.98125203450521 Q162.70000203450522,53.98125203450521 163.79375203450522,53.533335367838546 Q164.89791870117188,53.085418701171875 165.83541870117188,52.116668701171875 Q167.83541870117188,54.179168701171875 167.83541870117188,54.179168701171875 Q166.86666870117188,55.147918701171875 165.84583536783856,55.752085367838546 Q164.83541870117188,56.345835367838546 163.71041870117188,56.627085367838546 Q162.59583536783856,56.91875203450521 161.20000203450522,56.91875203450521 Q161.20000203450522,56.91875203450521 161.20000203450522,56.91875203450521 ZM165.13750203450522,47.783335367838546 Q165.20000203450522,47.51250203450521 165.21041870117188,47.252085367838546 Q165.23125203450522,46.98125203450521 165.23125203450522,46.720835367838546 Q165.23125203450522,45.95000203450521 164.96041870117188,45.220835367838546 Q164.70000203450522,44.48125203450521 164.16875203450522,43.897918701171875 Q163.63750203450522,43.314585367838546 162.84583536783856,42.970835367838546 Q162.06458536783856,42.616668701171875 161.03333536783856,42.616668701171875 Q159.66875203450522,42.616668701171875 158.70000203450522,43.23125203450521 Q157.73125203450522,43.845835367838546 157.21041870117188,44.845835367838546 Q156.70000203450522,45.845835367838546 156.59583536783856,47.01250203450521 Q166.20000203450522,47.01250203450521 166.20000203450522,47.01250203450521 C166.20000203450522,47.01250203450521 165.13750203450522,47.783335367838546 165.13750203450522,47.783335367838546 Z" fill="#ffffff"/>
		</g>
		<g transform="matrix(1,0,0,1,0.375489106,0)">
			<path d="M37.046875,57.09812927246094 Q30.453125,57.09812927246094 25.453125,53.98875427246094 Q20.453125,50.86375427246094 17.6875,45.23875427246094 Q14.921875,39.59812927246094 14.921875,32.03562927246094 Q14.921875,24.473129272460938 17.6875,18.801254272460938 Q20.453125,13.129379272460938 25.453125,10.020004272460938 Q30.453125,6.9106292724609375 37.046875,6.9106292724609375 Q43.828125,6.9106292724609375 48.828125,10.020004272460938 Q53.84375,13.129379272460938 56.609375,18.801254272460938 Q59.375,24.473129272460938 59.375,32.03562927246094 Q59.375,39.59812927246094 56.5625,45.23875427246094 Q53.765625,50.86375427246094 48.765625,53.98875427246094 Q43.765625,57.09812927246094 37.046875,57.09812927246094 Q37.046875,57.09812927246094 37.046875,57.09812927246094 ZM37.046875,52.69187927246094 Q42.5,52.69187927246094 46.453125,50.17625427246094 Q50.40625,47.64500427246094 52.578125,42.98875427246094 Q54.75,38.33250427246094 54.75,32.03562927246094 Q54.75,25.660629272460938 52.578125,21.004379272460938 Q50.40625,16.348129272460938 46.453125,13.832504272460938 Q42.5,11.316879272460938 37.046875,11.316879272460938 Q31.71875,11.316879272460938 27.765625,13.832504272460938 Q23.8125,16.348129272460938 21.640625,20.973129272460938 Q19.46875,25.598129272460938 19.46875,32.03562927246094 Q19.46875,38.41062927246094 21.640625,43.03562927246094 Q23.8125,47.64500427246094 27.765625,50.17625427246094 Q31.71875,52.69187927246094 37.046875,52.69187927246094 Q37.046875,52.69187927246094 37.046875,52.69187927246094 Z" fill="#ce6dbd" stroke="#7b4173" stroke-width="4" style="paint-order: stroke;" />
		</g>
		<g transform="matrix(1,0,0,1,0.375489106,0)">
			<path d="M0,-8 C4.414278222232112,-8 8,-4.414278222232112 8,0 C8,4.414278222232112 4.414278222232112,8 0,8 C-4.414278222232112,8 -8,4.414278222232112 -8,0 C-8,-4.414278222232112 -4.414278222232112,-8 0,-8 Z" transform="matrix(1,0,0,1,51.212432355,14.472402369)" fill="#ce6dbd"/>
			<path d="M0,-8 C4.414278222232112,-8 8,-4.414278222232112 8,0 C8,4.414278222232112 4.414278222232112,8 0,8 C-4.414278222232112,8 -8,4.414278222232112 -8,0 C-8,-4.414278222232112 -4.414278222232112,-8 0,-8 Z" transform="matrix(1,0,0,1,51.212432355,14.472402369)" clip-path="url(#alignment-17928071021787978115)" fill="none" stroke="#7b4173" stroke-width="4"/>
			<path d="M0,-8 C4.414278222232112,-8 8,-4.414278222232112 8,0 C8,4.414278222232112 4.414278222232112,8 0,8 C-4.414278222232112,8 -8,4.414278222232112 -8,0 C-8,-4.414278222232112 -4.414278222232112,-8 0,-8 Z" transform="matrix(1,0,0,1,21.398037474,47)" fill="#ce6dbd"/>
			<path d="M0,-8 C4.414278222232112,-8 8,-4.414278222232112 8,0 C8,4.414278222232112 4.414278222232112,8 0,8 C-4.414278222232112,8 -8,4.414278222232112 -8,0 C-8,-4.414278222232112 -4.414278222232112,-8 0,-8 Z" transform="matrix(1,0,0,1,21.398037474,47)" clip-path="url(#alignment-8522221816086410683)" fill="none" stroke="#7b4173" stroke-width="4"/>
		</g>
	</g>
</g></g></svg>