<svg xmlns="http://www.w3.org/2000/svg" viewBox="0 0 189 63" width="189" height="63"><defs><clipPath id="alignment-5378906105006601085">
<path d="M0,-8 C4.414278222232112,-8 8,-4.414278222232112 8,0 C8,4.414278222232112 4.414278222232112,8 0,8 C-4.414278222232112,8 -8,4.414278222232112 -8,0 C-8,-4.414278222232112 -4.414278222232112,-8 0,-8 Z" fill="#000000"/></clipPath><clipPath id="alignment-13679240229725710810">
<path d="M0,-8 C4.414278222232112,-8 8,-4.414278222232112 8,0 C8,4.414278222232112 4.414278222232112,8 0,8 C-4.414278222232112,8 -8,4.414278222232112 -8,0 C-8,-4.414278222232112 -4.414278222232112,-8 0,-8 Z" fill="#000000"/></clipPath><clipPath id="alignment-925788846701362334">
<path d="M0,-8 C4.414278222232112,-8 8,-4.414278222232112 8,0 C8,4.414278222232112 4.414278222232112,8 0,8 C-4.414278222232112,8 -8,4.414278222232112 -8,0 C-8,-4.414278222232112 -4.414278222232112,-8 0,-8 Z" fill="#000000"/></clipPath><clipPath id="alignment-5824909867021225530">
<path d="M0,-8 C4.414278222232112,-8 8,-4.414278222232112 8,0 C8,4.414278222232112 4.414278222232112,8 0,8 C-4.414278222232112,8 -8,4.414278222232112 -8,0 C-8,-4.414278222232112 -4.414278222232112,-8 0,-8 Z" fill="#000000"/></clipPath></defs><g>
<g>
	<g>
		<g transform="matrix(1,0,0,1,47.416666667,0)">
			<path d="M51,56.616668701171875 C51,56.616668701171875 50.72916666666667,53.585418701171875 50.72916666666667,53.585418701171875 C50.72916666666667,53.585418701171875 50.72916666666667,46.283335367838546 50.72916666666667,46.283335367838546 Q50.72916666666667,44.554168701171875 49.72916666666667,43.616668701171875 Q48.72916666666667,42.679168701171875 46.833333333333336,42.679168701171875 Q45.5,42.679168701171875 44.28125,43.220835367838546 Q43.0625,43.752085367838546 41.96875,44.95000203450521 Q39.9375,42.845835367838546 39.9375,42.845835367838546 Q41.395833333333336,41.314585367838546 43.177083333333336,40.60625203450521 Q44.96875,39.88750203450521 47.0625,39.88750203450521 Q50.364583333333336,39.88750203450521 52.177083333333336,41.57500203450521 Q54,43.252085367838546 54,46.283335367838546 Q54,56.616668701171875 54,56.616668701171875 C54,56.616668701171875 51,56.616668701171875 51,56.616668701171875 ZM45.69791666666667,56.91875203450521 Q43.864583333333336,56.91875203450521 42.458333333333336,56.252085367838546 Q41.0625,55.585418701171875 40.291666666666664,54.408335367838546 Q39.53125,53.220835367838546 39.53125,51.647918701171875 Q39.53125,50.283335367838546 40.09375,49.304168701171875 Q40.666666666666664,48.314585367838546 41.5625,47.783335367838546 Q42.395833333333336,47.252085367838546 43.479166666666664,47.033335367838546 Q44.5625,46.814585367838546 45.802083333333336,46.814585367838546 Q51.03125,46.814585367838546 51.03125,46.814585367838546 C51.03125,46.814585367838546 51.03125,49.283335367838546 51.03125,49.283335367838546 C51.03125,49.283335367838546 46.270833333333336,49.283335367838546 46.270833333333336,49.283335367838546 Q45.60416666666667,49.283335367838546 44.88541666666667,49.397918701171875 Q44.166666666666664,49.51250203450521 43.666666666666664,49.88750203450521 Q43.270833333333336,50.179168701171875 43.03125,50.63750203450521 Q42.802083333333336,51.085418701171875 42.802083333333336,51.679168701171875 Q42.802083333333336,52.845835367838546 43.697916666666664,53.554168701171875 Q44.604166666666664,54.252085367838546 46.10416666666667,54.252085367838546 Q47.364583333333336,54.252085367838546 48.41666666666667,53.66875203450521 Q49.46875,53.085418701171875 50.09375,52.07500203450521 Q50.72916666666667,51.054168701171875 50.72916666666667,49.752085367838546 Q51.895833333333336,51.283335367838546 51.895833333333336,51.283335367838546 Q51.60416666666667,53.01250203450521 50.72916666666667,54.304168701171875 Q49.864583333333336,55.585418701171875 48.583333333333336,56.252085367838546 Q47.302083333333336,56.91875203450521 45.69791666666667,56.91875203450521 Q45.69791666666667,56.91875203450521 45.69791666666667,56.91875203450521 ZM64.06666692097983,56.91875203450521 Q62.868750254313156,56.91875203450521 61.84791692097982,56.45000203450521 Q60.837500254313156,55.98125203450521 60.25416692097982,54.939585367838546 Q59.670833587646484,53.88750203450521 59.670833587646484,52.220835367838546 Q59.670833587646484,35.98125203450521 59.670833587646484,35.98125203450521 C59.670833587646484,35.98125203450521 62.962500254313156,34.147918701171875 62.962500254313156,34.147918701171875 C62.962500254313156,34.147918701171875 62.962500254313156,51.345835367838546 62.962500254313156,51.345835367838546 Q62.962500254313156,52.720835367838546 63.37916692097982,53.470835367838546 Q63.795833587646484,54.220835367838546 64.93125025431316,54.220835367838546 Q65.26458358764648,54.220835367838546 65.71250025431316,54.13750203450521 Q66.17083358764648,54.054168701171875 66.70208358764648,53.91875203450521 Q66.70208358764648,56.45000203450521 66.70208358764648,56.45000203450521 Q66.03541692097983,56.679168701171875 65.36875025431316,56.79375203450521 Q64.70208358764648,56.91875203450521 64.06666692097983,56.91875203450521 Q64.06666692097983,56.91875203450521 64.06666692097983,56.91875203450521 ZM56.400000254313156,42.720835367838546 C56.400000254313156,42.720835367838546 56.400000254313156,40.179168701171875 56.400000254313156,40.179168701171875 C56.400000254313156,40.179168701171875 66.70208358764648,40.179168701171875 66.70208358764648,40.179168701171875 C66.70208358764648,40.179168701171875 66.70208358764648,42.720835367838546 66.70208358764648,42.720835367838546 C66.70208358764648,42.720835367838546 56.400000254313156,42.720835367838546 56.400000254313156,42.720835367838546 ZM70.10416666666667,56.616668701171875 C70.10416666666667,56.616668701171875 70.10416666666667,33.38750203450521 70.10416666666667,33.38750203450521 C70.10416666666667,33.38750203450521 73.39583333333334,33.38750203450521 73.39583333333334,33.38750203450521 C73.39583333333334,33.38750203450521 73.39583333333334,43.752085367838546 73.39583333333334,43.752085367838546 C73.39583333333334,43.752085367838546 72.69791666666667,43.98125203450521 72.69791666666667,43.98125203450521 Q73.13541666666667,42.616668701171875 73.97916666666667,41.720835367838546 Q74.83333333333334,40.814585367838546 75.94791666666667,40.35625203450521 Q77.0625,39.88750203450521 78.33333333333334,39.88750203450521 Q81.0625,39.88750203450521 82.61458333333334,41.470835367838546 Q84.16666666666667,43.054168701171875 84.16666666666667,46.085418701171875 Q84.16666666666667,56.616668701171875 84.16666666666667,56.616668701171875 C84.16666666666667,56.616668701171875 80.89583333333334,56.616668701171875 80.89583333333334,56.616668701171875 C80.89583333333334,56.616668701171875 80.89583333333334,47.283335367838546 80.89583333333334,47.283335367838546 Q80.89583333333334,44.91875203450521 80.04166666666667,43.82500203450521 Q79.19791666666667,42.720835367838546 77.4375,42.720835367838546 Q75.46875,42.720835367838546 74.42708333333334,44.10625203450521 Q73.39583333333334,45.48125203450521 73.39583333333334,48.51250203450521 Q73.39583333333334,56.616668701171875 73.39583333333334,56.616668701171875 C73.39583333333334,56.616668701171875 70.10416666666667,56.616668701171875 70.10416666666667,56.616668701171875 Z" fill="#ffffff"/>
		</g>
		<g transform="matrix(1,0,0,1,47.416666667,0)">
			<path d="M16.953125,56.39500427246094 C16.953125,56.39500427246094 16.953125,7.5981292724609375 16.953125,7.5981292724609375 C16.953125,7.5981292724609375 30.671875,7.5981292724609375 30.671875,7.5981292724609375 Q38.375,7.5981292724609375 42.53125,11.098129272460938 Q46.703125,14.598129272460938 46.703125,21.254379272460938 Q46.703125,27.832504272460938 42.53125,31.410629272460938 Q38.375,34.97312927246094 30.671875,34.97312927246094 Q21.5,34.97312927246094 21.5,34.97312927246094 C21.5,34.97312927246094 21.5,56.39500427246094 21.5,56.39500427246094 C21.5,56.39500427246094 16.953125,56.39500427246094 16.953125,56.39500427246094 ZM21.5,30.910629272460938 C21.5,30.910629272460938 30.1875,30.910629272460938 30.1875,30.910629272460938 Q35.78125,30.910629272460938 38.921875,28.504379272460938 Q42.078125,26.082504272460938 42.078125,21.254379272460938 Q42.078125,16.566879272460938 39,14.160629272460938 Q35.921875,11.738754272460938 30.1875,11.738754272460938 Q21.5,11.738754272460938 21.5,11.738754272460938 C21.5,11.738754272460938 21.5,30.910629272460938 21.5,30.910629272460938 Z" fill="#bdbdbd" stroke="#636363" stroke-width="4" stroke-linejoin="round" style="paint-order: stroke;" />
		</g>
		<g transform="matrix(1,0,0,1,47.416666667,0)">
			<path d="M0,-8 C4.414278222232112,-8 8,-4.414278222232112 8,0 C8,4.414278222232112 4.414278222232112,8 0,8 C-4.414278222232112,8 -8,4.414278222232112 -8,0 C-8,-4.414278222232112 -4.414278222232112,-8 0,-8 Z" transform="matrix(1,0,0,1,19,10)" fill="#bdbdbd"/>
			<path d="M0,-8 C4.414278222232112,-8 8,-4.414278222232112 8,0 C8,4.414278222232112 4.414278222232112,8 0,8 C-4.414278222232112,8 -8,4.414278222232112 -8,0 C-8,-4.414278222232112 -4.414278222232112,-8 0,-8 Z" transform="matrix(1,0,0,1,19,10)" clip-path="url(#alignment-5378906105006601085)" fill="none" stroke="#636363" stroke-width="4"/>
			<path d="M0,-8 C4.414278222232112,-8 8,-4.414278222232112 8,0 C8,4.414278222232112 4.414278222232112,8 0,8 C-4.414278222232112,8 -8,4.414278222232112 -8,0 C-8,-4.414278222232112 -4.414278222232112,-8 0,-8 Z" transform="matrix(1,0,0,1,19,32)" fill="#bdbdbd"/>
			<path d="M0,-8 C4.414278222232112,-8 8,-4.414278222232112 8,0 C8,4.414278222232112 4.414278222232112,8 0,8 C-4.414278222232112,8 -8,4.414278222232112 -8,0 C-8,-4.414278222232112 -4.414278222232112,-8 0,-8 Z" transform="matrix(1,0,0,1,19,32)" clip-path="url(#alignment-13679240229725710810)" fill="none" stroke="#636363" stroke-width="4"/>
		</g>
		<g transform="matrix(1,0,0,1,47.416666667,0)">
			<path d="M0,-8 C4.414278222232112,-8 8,-4.414278222232112 8,0 C8,4.414278222232112 4.414278222232112,8 0,8 C-4.414278222232112,8 -8,4.414278222232112 -8,0 C-8,-4.414278222232112 -4.414278222232112,-8 0,-8 Z" transform="matrix(1,0,0,1,19,54)" fill="#bdbdbd"/>
			<path d="M0,-8 C4.414278222232112,-8 8,-4.414278222232112 8,0 C8,4.414278222232112 4.414278222232112,8 0,8 C-4.414278222232112,8 -8,4.414278222232112 -8,0 C-8,-4.414278222232112 -4.414278222232112,-8 0,-8 Z" transform="matrix(1,0,0,1,19,54)" clip-path="url(#alignment-925788846701362334)" fill="none" stroke="#636363" stroke-width="4"/>
			<path d="M0,-8 C4.414278222232112,-8 8,-4.414278222232112 8,0 C8,4.414278222232112 4.414278222232112,8 0,8 C-4.414278222232112,8 -8,4.414278222232112 -8,0 C-8,-4.414278222232112 -4.414278222232112,-8 0,-8 Z" transform="matrix(1,0,0,1,19,54)" fill="#bdbdbd"/>
			<path d="M0,-8 C4.414278222232112,-8 8,-4.414278222232112 8,0 C8,4.414278222232112 4.414278222232112,8 0,8 C-4.414278222232112,8 -8,4.414278222232112 -8,0 C-8,-4.414278222232112 -4.414278222232112,-8 0,-8 Z" transform="matrix(1,0,0,1,19,54)" clip-path="url(#alignment-5824909867021225530)" fill="none" stroke="#636363" stroke-width="4"/>
		</g>
	</g>
</g></g></svg>