<svg xmlns="http://www.w3.org/2000/svg" viewBox="0 0 190 64" width="190" height="64"><defs><clipPath id="alignment-13298751568398079331">
<path d="M0,-8 C4.414278222232112,-8 8,-4.414278222232112 8,0 C8,4.414278222232112 4.414278222232112,8 0,8 C-4.414278222232112,8 -8,4.414278222232112 -8,0 C-8,-4.414278222232112 -4.414278222232112,-8 0,-8 Z" fill="#000000"/></clipPath><clipPath id="alignment-8703030881560832279">
<path d="M0,-8 C4.414278222232112,-8 8,-4.414278222232112 8,0 C8,4.414278222232112 4.414278222232112,8 0,8 C-4.414278222232112,8 -8,4.414278222232112 -8,0 C-8,-4.414278222232112 -4.414278222232112,-8 0,-8 Z" fill="#000000"/></clipPath></defs><g>
<g>
	<g>
		<g transform="matrix(1,0,0,1,40.958802541,0)">
			<path d="M64.31250000000006,57.46083323160821 Q60.43750000000004,57.46083323160821 57.5104166666667,55.65874989827487 Q54.59375000000002,53.856666564941534 52.937500000000014,50.59624989827485 Q51.28125000000001,47.33583323160818 51.28125000000001,43.02333323160816 Q51.28125000000001,38.658749898274806 52.91666666666668,35.398333231608134 Q54.56250000000002,32.137916564941456 57.50000000000003,30.34624989827478 Q60.43750000000004,28.544166564941442 64.31250000000006,28.544166564941442 Q68.28125000000007,28.544166564941442 71.23958333333341,30.34624989827478 Q74.19791666666676,32.137916564941456 75.83333333333343,35.398333231608134 Q77.47916666666677,38.658749898274806 77.47916666666677,43.02333323160816 Q77.47916666666677,47.33583323160818 75.8125000000001,50.59624989827485 Q74.15625000000009,53.856666564941534 71.19791666666674,55.65874989827487 Q68.2395833333334,57.46083323160821 64.31250000000006,57.46083323160821 Q64.31250000000006,57.46083323160821 64.31250000000006,57.46083323160821 ZM76.19791666666677,58.89833323160822 C76.19791666666677,58.89833323160822 65.19791666666673,48.17958323160818 65.19791666666673,48.17958323160818 C65.19791666666673,48.17958323160818 67.59375000000006,45.658749898274834 67.59375000000006,45.658749898274834 C67.59375000000006,45.658749898274834 78.67708333333344,56.50249989827488 78.67708333333344,56.50249989827488 C78.67708333333344,56.50249989827488 76.19791666666677,58.89833323160822 76.19791666666677,58.89833323160822 ZM64.31250000000006,53.575416564941534 Q67.1145833333334,53.575416564941534 69.1145833333334,52.28374989827486 Q71.11458333333341,50.98166656494152 72.22916666666674,48.60666656494151 Q73.35416666666676,46.221249898274834 73.35416666666676,43.02333323160816 Q73.35416666666676,39.78374989827481 72.22916666666674,37.408749898274806 Q71.11458333333341,35.023333231608134 69.1145833333334,33.72124989827479 Q67.1145833333334,32.419166564941456 64.31250000000006,32.419166564941456 Q61.59375000000004,32.419166564941456 59.5729166666667,33.70041656494146 Q57.56250000000003,34.98166656494146 56.45833333333336,37.367083231608134 Q55.354166666666686,39.74208323160815 55.354166666666686,43.02333323160816 Q55.354166666666686,46.262916564941506 56.45833333333336,48.64833323160818 Q57.56250000000003,51.02333323160819 59.5729166666667,52.30458323160819 Q61.59375000000004,53.575416564941534 64.31250000000006,53.575416564941534 Q64.31250000000006,53.575416564941534 64.31250000000006,53.575416564941534 ZM83.39749908447277,56.93999989827488 C83.39749908447277,56.93999989827488 83.39749908447277,29.064999898274777 83.39749908447277,29.064999898274777 C83.39749908447277,29.064999898274777 87.48083241780613,29.064999898274777 87.48083241780613,29.064999898274777 C87.48083241780613,29.064999898274777 87.48083241780613,53.3045832316082 87.48083241780613,53.3045832316082 C87.48083241780613,53.3045832316082 99.76208241780617,53.3045832316082 99.76208241780617,53.3045832316082 C99.76208241780617,53.3045832316082 99.76208241780617,56.93999989827488 99.76208241780617,56.93999989827488 C99.76208241780617,56.93999989827488 83.39749908447277,56.93999989827488 83.39749908447277,56.93999989827488 Z" fill="#000000"/>
		</g>
		<g transform="matrix(1,0,0,1,40.958802541,0)">
			<path d="M31.296875000000007,57.020004272460966 Q24.156250000000007,57.020004272460966 19.609375000000004,53.316879272460966 Q15.062500000000004,49.598129272460966 14.078125000000004,43.441879272460966 Q18.562500000000004,42.332504272460966 18.562500000000004,42.332504272460966 Q19.406250000000004,47.504379272460966 22.859375000000004,50.207504272460966 Q26.328125000000007,52.895004272460966 31.437500000000007,52.895004272460966 Q34.45312500000001,52.895004272460966 36.85937500000001,51.707504272460966 Q39.28125000000001,50.520004272460966 40.67187500000001,48.348129272460966 Q42.07812500000001,46.176254272460966 42.07812500000001,43.379379272460966 Q42.07812500000001,40.363754272460966 40.46875000000001,38.520004272460966 Q38.85937500000001,36.66062927246096 36.20312500000001,35.33250427246096 Q33.54687500000001,33.98875427246096 30.187500000000007,32.73875427246096 Q26.406250000000007,31.27000427246096 23.390625000000007,29.55125427246096 Q20.375000000000004,27.83250427246096 18.656250000000004,25.39500427246096 Q16.953125000000004,22.94187927246096 16.953125000000004,19.30125427246096 Q16.953125000000004,15.660629272460957 18.703125000000004,12.895004272460953 Q20.453125000000004,10.129379272460953 23.625000000000007,8.520004272460953 Q26.812500000000007,6.9106292724609535 31.015625000000007,6.9106292724609535 Q35.50000000000001,6.9106292724609535 38.92187500000001,8.941879272460953 Q42.35937500000001,10.957504272460953 44.45312500000001,14.879379272460957 Q40.81250000000001,17.12937927246096 40.81250000000001,17.12937927246096 Q39.14062500000001,14.191879272460957 36.65625000000001,12.582504272460953 Q34.17187500000001,10.957504272460953 30.875000000000007,10.957504272460953 Q28.078125000000007,10.957504272460953 25.968750000000007,12.020004272460953 Q23.875000000000007,13.066879272460953 22.687500000000004,14.926254272460957 Q21.500000000000004,16.77000427246096 21.500000000000004,19.16062927246096 Q21.500000000000004,21.67625427246096 22.859375000000004,23.42625427246096 Q24.234375000000007,25.17625427246096 26.781250000000007,26.44187927246096 Q29.343750000000007,27.69187927246096 32.76562500000001,28.95750427246096 Q36.82812500000001,30.48875427246096 39.93750000000001,32.28562927246096 Q43.06250000000001,34.06687927246096 44.81250000000001,36.66062927246096 Q46.56250000000001,39.238754272460966 46.56250000000001,43.098129272460966 Q46.56250000000001,47.160629272460966 44.59375000000001,50.316879272460966 Q42.64062500000001,53.457504272460966 39.20312500000001,55.238754272460966 Q35.78125000000001,57.020004272460966 31.296875000000007,57.020004272460966 Q31.296875000000007,57.020004272460966 31.296875000000007,57.020004272460966 Z" fill="#fd8d3c" stroke="#e6550d" stroke-width="4" style="paint-order: stroke;" />
		</g>
		<g transform="matrix(1,0,0,1,40.958802541,0)">
			<path d="M0,-8 C4.414278222232112,-8 8,-4.414278222232112 8,0 C8,4.414278222232112 4.414278222232112,8 0,8 C-4.414278222232112,8 -8,4.414278222232112 -8,0 C-8,-4.414278222232112 -4.414278222232112,-8 0,-8 Z" transform="matrix(1,0,0,1,42.6328125,16.004379272)" fill="#fd8d3c"/>
			<path d="M0,-8 C4.414278222232112,-8 8,-4.414278222232112 8,0 C8,4.414278222232112 4.414278222232112,8 0,8 C-4.414278222232112,8 -8,4.414278222232112 -8,0 C-8,-4.414278222232112 -4.414278222232112,-8 0,-8 Z" transform="matrix(1,0,0,1,42.6328125,16.004379272)" clip-path="url(#alignment-13298751568398079331)" fill="none" stroke="#e6550d" stroke-width="4"/>
			<path d="M0,-8 C4.414278222232112,-8 8,-4.414278222232112 8,0 C8,4.414278222232112 4.414278222232112,8 0,8 C-4.414278222232112,8 -8,4.414278222232112 -8,0 C-8,-4.414278222232112 -4.414278222232112,-8 0,-8 Z" transform="matrix(1,0,0,1,16.3203125,42.887191772)" fill="#fd8d3c"/>
			<path d="M0,-8 C4.414278222232112,-8 8,-4.414278222232112 8,0 C8,4.414278222232112 4.414278222232112,8 0,8 C-4.414278222232112,8 -8,4.414278222232112 -8,0 C-8,-4.414278222232112 -4.414278222232112,-8 0,-8 Z" transform="matrix(1,0,0,1,16.3203125,42.887191772)" clip-path="url(#alignment-8703030881560832279)" fill="none" stroke="#e6550d" stroke-width="4"/>
		</g>
	</g>
</g></g></svg>