<svg xmlns="http://www.w3.org/2000/svg" viewBox="0 0 190 64" width="190" height="64"><defs><clipPath id="alignment-14687919244861022921">
<path d="M0,-8 C4.414278222232112,-8 8,-4.414278222232112 8,0 C8,4.414278222232112 4.414278222232112,8 0,8 C-4.414278222232112,8 -8,4.414278222232112 -8,0 C-8,-4.414278222232112 -4.414278222232112,-8 0,-8 Z" fill="#000000"/></clipPath><clipPath id="alignment-17919988791477282824">
<path d="M0,-8 C4.414278222232112,-8 8,-4.414278222232112 8,0 C8,4.414278222232112 4.414278222232112,8 0,8 C-4.414278222232112,8 -8,4.414278222232112 -8,0 C-8,-4.414278222232112 -4.414278222232112,-8 0,-8 Z" fill="#000000"/></clipPath><clipPath id="alignment-6834363035992999993">
<path d="M0,-8 C4.414278222232112,-8 8,-4.414278222232112 8,0 C8,4.414278222232112 4.414278222232112,8 0,8 C-4.414278222232112,8 -8,4.414278222232112 -8,0 C-8,-4.414278222232112 -4.414278222232112,-8 0,-8 Z" fill="#000000"/></clipPath><clipPath id="alignment-16267904097499582252">
<path d="M0,-8 C4.414278222232112,-8 8,-4.414278222232112 8,0 C8,4.414278222232112 4.414278222232112,8 0,8 C-4.414278222232112,8 -8,4.414278222232112 -8,0 C-8,-4.414278222232112 -4.414278222232112,-8 0,-8 Z" fill="#000000"/></clipPath></defs><g>
<g>
	<g>
		<g transform="matrix(1,0,0,1,8.975519816,0)">
			<path d="M52.333333333333336,56.91875203450521 Q50.333333333333336,56.91875203450521 48.864583333333336,56.252085367838546 Q47.395833333333336,55.585418701171875 46.427083333333336,54.408335367838546 Q45.46875,53.220835367838546 44.979166666666664,51.70000203450521 Q44.5,50.179168701171875 44.5,48.51250203450521 Q44.5,46.845835367838546 44.96875,45.304168701171875 Q45.4375,43.752085367838546 46.364583333333336,42.533335367838546 Q47.302083333333336,41.314585367838546 48.71875,40.60625203450521 Q50.13541666666667,39.88750203450521 52.0625,39.88750203450521 Q54,39.88750203450521 55.395833333333336,40.533335367838546 Q56.802083333333336,41.179168701171875 57.69791666666667,42.335418701171875 Q58.60416666666667,43.48125203450521 59.052083333333336,44.91875203450521 Q59.5,46.345835367838546 59.5,47.95000203450521 Q59.5,48.116668701171875 59.47916666666667,48.564585367838546 Q59.46875,49.01250203450521 59.395833333333336,49.41875203450521 Q47.770833333333336,49.41875203450521 47.770833333333336,49.41875203450521 Q47.864583333333336,51.616668701171875 49.114583333333336,52.804168701171875 Q50.364583333333336,53.98125203450521 52.4375,53.98125203450521 Q53.833333333333336,53.98125203450521 54.927083333333336,53.533335367838546 Q56.03125,53.085418701171875 56.96875,52.116668701171875 Q58.96875,54.179168701171875 58.96875,54.179168701171875 Q58,55.147918701171875 56.97916666666667,55.752085367838546 Q55.96875,56.345835367838546 54.84375,56.627085367838546 Q53.72916666666667,56.91875203450521 52.333333333333336,56.91875203450521 Q52.333333333333336,56.91875203450521 52.333333333333336,56.91875203450521 ZM56.270833333333336,47.783335367838546 Q56.333333333333336,47.51250203450521 56.34375,47.252085367838546 Q56.364583333333336,46.98125203450521 56.364583333333336,46.720835367838546 Q56.364583333333336,45.95000203450521 56.09375,45.220835367838546 Q55.833333333333336,44.48125203450521 55.302083333333336,43.897918701171875 Q54.770833333333336,43.314585367838546 53.97916666666667,42.970835367838546 Q53.19791666666667,42.616668701171875 52.16666666666667,42.616668701171875 Q50.802083333333336,42.616668701171875 49.833333333333336,43.23125203450521 Q48.864583333333336,43.845835367838546 48.34375,44.845835367838546 Q47.833333333333336,45.845835367838546 47.729166666666664,47.01250203450521 Q57.333333333333336,47.01250203450521 57.333333333333336,47.01250203450521 C57.333333333333336,47.01250203450521 56.270833333333336,47.783335367838546 56.270833333333336,47.783335367838546 ZM63.270833333333336,56.616668701171875 C63.270833333333336,56.616668701171875 63.270833333333336,40.179168701171875 63.270833333333336,40.179168701171875 C63.270833333333336,40.179168701171875 66.5625,40.179168701171875 66.5625,40.179168701171875 C66.5625,40.179168701171875 66.5625,43.752085367838546 66.5625,43.752085367838546 C66.5625,43.752085367838546 65.89583333333334,43.95000203450521 65.89583333333334,43.95000203450521 Q66.33333333333334,42.585418701171875 67.14583333333334,41.70000203450521 Q67.96875,40.814585367838546 69.08333333333334,40.35625203450521 Q70.19791666666667,39.88750203450521 71.5,39.88750203450521 Q74.22916666666667,39.88750203450521 75.78125,41.470835367838546 Q77.33333333333334,43.054168701171875 77.33333333333334,46.085418701171875 Q77.33333333333334,56.616668701171875 77.33333333333334,56.616668701171875 C77.33333333333334,56.616668701171875 74.0625,56.616668701171875 74.0625,56.616668701171875 C74.0625,56.616668701171875 74.0625,47.283335367838546 74.0625,47.283335367838546 Q74.0625,44.91875203450521 73.20833333333334,43.82500203450521 Q72.36458333333334,42.720835367838546 70.60416666666667,42.720835367838546 Q69.27083333333334,42.720835367838546 68.38541666666667,43.32500203450521 Q67.5,43.91875203450521 67.03125,45.220835367838546 Q66.5625,46.51250203450521 66.5625,48.51250203450521 Q66.5625,56.616668701171875 66.5625,56.616668701171875 C66.5625,56.616668701171875 63.270833333333336,56.616668701171875 63.270833333333336,56.616668701171875 ZM86.39583333333334,56.616668701171875 C86.39583333333334,56.616668701171875 79.66666666666667,40.179168701171875 79.66666666666667,40.179168701171875 C79.66666666666667,40.179168701171875 83.27083333333334,40.179168701171875 83.27083333333334,40.179168701171875 C83.27083333333334,40.179168701171875 87.72916666666667,52.38750203450521 87.72916666666667,52.38750203450521 C87.72916666666667,52.38750203450521 92.27083333333334,40.179168701171875 92.27083333333334,40.179168701171875 C92.27083333333334,40.179168701171875 95.80208333333334,40.179168701171875 95.80208333333334,40.179168701171875 C95.80208333333334,40.179168701171875 89.13541666666667,56.616668701171875 89.13541666666667,56.616668701171875 C89.13541666666667,56.616668701171875 86.39583333333334,56.616668701171875 86.39583333333334,56.616668701171875 ZM105.36666870117188,56.91875203450521 Q103.36666870117188,56.91875203450521 101.89791870117188,56.252085367838546 Q100.42916870117188,55.585418701171875 99.46041870117188,54.408335367838546 Q98.50208536783855,53.220835367838546 98.01250203450522,51.70000203450521 Q97.53333536783855,50.179168701171875 97.53333536783855,48.51250203450521 Q97.53333536783855,46.845835367838546 98.00208536783855,45.304168701171875 Q98.47083536783855,43.752085367838546 99.39791870117188,42.533335367838546 Q100.33541870117188,41.314585367838546 101.75208536783855,40.60625203450521 Q103.16875203450522,39.88750203450521 105.09583536783855,39.88750203450521 Q107.03333536783855,39.88750203450521 108.42916870117189,40.533335367838546 Q109.83541870117189,41.179168701171875 110.73125203450522,42.335418701171875 Q111.63750203450522,43.48125203450521 112.08541870117189,44.91875203450521 Q112.53333536783855,46.345835367838546 112.53333536783855,47.95000203450521 Q112.53333536783855,48.116668701171875 112.51250203450522,48.564585367838546 Q112.50208536783855,49.01250203450521 112.42916870117189,49.41875203450521 Q100.80416870117188,49.41875203450521 100.80416870117188,49.41875203450521 Q100.89791870117188,51.616668701171875 102.14791870117188,52.804168701171875 Q103.39791870117188,53.98125203450521 105.47083536783855,53.98125203450521 Q106.86666870117188,53.98125203450521 107.96041870117189,53.533335367838546 Q109.06458536783855,53.085418701171875 110.00208536783855,52.116668701171875 Q112.00208536783855,54.179168701171875 112.00208536783855,54.179168701171875 Q111.03333536783855,55.147918701171875 110.01250203450522,55.752085367838546 Q109.00208536783855,56.345835367838546 107.87708536783855,56.627085367838546 Q106.76250203450522,56.91875203450521 105.36666870117188,56.91875203450521 Q105.36666870117188,56.91875203450521 105.36666870117188,56.91875203450521 ZM109.30416870117189,47.783335367838546 Q109.36666870117189,47.51250203450521 109.37708536783855,47.252085367838546 Q109.39791870117189,46.98125203450521 109.39791870117189,46.720835367838546 Q109.39791870117189,45.95000203450521 109.12708536783855,45.220835367838546 Q108.86666870117189,44.48125203450521 108.33541870117189,43.897918701171875 Q107.80416870117189,43.314585367838546 107.01250203450522,42.970835367838546 Q106.23125203450522,42.616668701171875 105.20000203450522,42.616668701171875 Q103.83541870117188,42.616668701171875 102.86666870117188,43.23125203450521 Q101.89791870117188,43.845835367838546 101.37708536783855,44.845835367838546 Q100.86666870117188,45.845835367838546 100.76250203450522,47.01250203450521 Q110.36666870117189,47.01250203450521 110.36666870117189,47.01250203450521 C110.36666870117189,47.01250203450521 109.30416870117189,47.783335367838546 109.30416870117189,47.783335367838546 ZM114.46666971842448,56.616668701171875 C114.46666971842448,56.616668701171875 120.26875305175783,48.345835367838546 120.26875305175783,48.345835367838546 C120.26875305175783,48.345835367838546 114.46666971842448,40.179168701171875 114.46666971842448,40.179168701171875 C114.46666971842448,40.179168701171875 118.40416971842448,40.179168701171875 118.40416971842448,40.179168701171875 C118.40416971842448,40.179168701171875 122.43541971842448,46.147918701171875 122.43541971842448,46.147918701171875 C122.43541971842448,46.147918701171875 126.49791971842448,40.179168701171875 126.49791971842448,40.179168701171875 C126.49791971842448,40.179168701171875 130.4041697184245,40.179168701171875 130.4041697184245,40.179168701171875 C130.4041697184245,40.179168701171875 124.52916971842448,48.345835367838546 124.52916971842448,48.345835367838546 C124.52916971842448,48.345835367838546 130.4041697184245,56.616668701171875 130.4041697184245,56.616668701171875 C130.4041697184245,56.616668701171875 126.43541971842448,56.616668701171875 126.43541971842448,56.616668701171875 C126.43541971842448,56.616668701171875 122.43541971842448,50.585418701171875 122.43541971842448,50.585418701171875 C122.43541971842448,50.585418701171875 118.33125305175783,56.616668701171875 118.33125305175783,56.616668701171875 C118.33125305175783,56.616668701171875 114.46666971842448,56.616668701171875 114.46666971842448,56.616668701171875 ZM133.42916870117188,56.616668701171875 C133.42916870117188,56.616668701171875 133.42916870117188,40.179168701171875 133.42916870117188,40.179168701171875 C133.42916870117188,40.179168701171875 136.70000203450522,40.179168701171875 136.70000203450522,40.179168701171875 C136.70000203450522,40.179168701171875 136.70000203450522,56.616668701171875 136.70000203450522,56.616668701171875 C136.70000203450522,56.616668701171875 133.42916870117188,56.616668701171875 133.42916870117188,56.616668701171875 ZM133.20000203450522,37.345835367838546 C133.20000203450522,37.345835367838546 133.20000203450522,33.38750203450521 133.20000203450522,33.38750203450521 C133.20000203450522,33.38750203450521 136.89791870117188,33.38750203450521 136.89791870117188,33.38750203450521 C136.89791870117188,33.38750203450521 136.89791870117188,37.345835367838546 136.89791870117188,37.345835367838546 C136.89791870117188,37.345835367838546 133.20000203450522,37.345835367838546 133.20000203450522,37.345835367838546 ZM146.93333943684897,56.91875203450521 Q145.7354227701823,56.91875203450521 144.71458943684897,56.45000203450521 Q143.7041727701823,55.98125203450521 143.12083943684897,54.939585367838546 Q142.53750610351563,53.88750203450521 142.53750610351563,52.220835367838546 Q142.53750610351563,35.98125203450521 142.53750610351563,35.98125203450521 C142.53750610351563,35.98125203450521 145.8291727701823,34.147918701171875 145.8291727701823,34.147918701171875 C145.8291727701823,34.147918701171875 145.8291727701823,51.345835367838546 145.8291727701823,51.345835367838546 Q145.8291727701823,52.720835367838546 146.24583943684897,53.470835367838546 Q146.66250610351563,54.220835367838546 147.7979227701823,54.220835367838546 Q148.13125610351563,54.220835367838546 148.5791727701823,54.13750203450521 Q149.03750610351563,54.054168701171875 149.56875610351563,53.91875203450521 Q149.56875610351563,56.45000203450521 149.56875610351563,56.45000203450521 Q148.90208943684897,56.679168701171875 148.2354227701823,56.79375203450521 Q147.56875610351563,56.91875203450521 146.93333943684897,56.91875203450521 Q146.93333943684897,56.91875203450521 146.93333943684897,56.91875203450521 ZM139.2666727701823,42.720835367838546 C139.2666727701823,42.720835367838546 139.2666727701823,40.179168701171875 139.2666727701823,40.179168701171875 C139.2666727701823,40.179168701171875 149.56875610351563,40.179168701171875 149.56875610351563,40.179168701171875 C149.56875610351563,40.179168701171875 149.56875610351563,42.720835367838546 149.56875610351563,42.720835367838546 C149.56875610351563,42.720835367838546 139.2666727701823,42.720835367838546 139.2666727701823,42.720835367838546 ZM154.50208536783856,63.38750203450521 C154.50208536783856,63.38750203450521 157.70000203450522,55.647918701171875 157.70000203450522,55.647918701171875 C157.70000203450522,55.647918701171875 151.36666870117188,40.179168701171875 151.36666870117188,40.179168701171875 C151.36666870117188,40.179168701171875 154.97083536783856,40.179168701171875 154.97083536783856,40.179168701171875 C154.97083536783856,40.179168701171875 159.42916870117188,52.38750203450521 159.42916870117188,52.38750203450521 C159.42916870117188,52.38750203450521 163.97083536783856,40.179168701171875 163.97083536783856,40.179168701171875 C163.97083536783856,40.179168701171875 167.50208536783856,40.179168701171875 167.50208536783856,40.179168701171875 C167.50208536783856,40.179168701171875 158.06458536783856,63.38750203450521 158.06458536783856,63.38750203450521 C158.06458536783856,63.38750203450521 154.50208536783856,63.38750203450521 154.50208536783856,63.38750203450521 Z" fill="#000000"/>
		</g>
		<g transform="matrix(1,0,0,1,8.975519816,0)">
			<path d="M29.34375,56.39500427246094 C29.34375,56.39500427246094 29.34375,11.738754272460938 29.34375,11.738754272460938 C29.34375,11.738754272460938 12.265625,11.738754272460938 12.265625,11.738754272460938 C12.265625,11.738754272460938 12.265625,7.5981292724609375 12.265625,7.5981292724609375 C12.265625,7.5981292724609375 50.96875,7.5981292724609375 50.96875,7.5981292724609375 C50.96875,7.5981292724609375 50.96875,11.738754272460938 50.96875,11.738754272460938 C50.96875,11.738754272460938 33.953125,11.738754272460938 33.953125,11.738754272460938 C33.953125,11.738754272460938 33.953125,56.39500427246094 33.953125,56.39500427246094 C33.953125,56.39500427246094 29.34375,56.39500427246094 29.34375,56.39500427246094 Z" fill="#a1d99b" stroke="#31a354" stroke-width="4" style="paint-order: stroke;" />
		</g>
		<g transform="matrix(1,0,0,1,8.975519816,0)">
			<path d="M0,-8 C4.414278222232112,-8 8,-4.414278222232112 8,0 C8,4.414278222232112 4.414278222232112,8 0,8 C-4.414278222232112,8 -8,4.414278222232112 -8,0 C-8,-4.414278222232112 -4.414278222232112,-8 0,-8 Z" transform="matrix(1,0,0,1,31.796875,53)" fill="#a1d99b"/>
			<path d="M0,-8 C4.414278222232112,-8 8,-4.414278222232112 8,0 C8,4.414278222232112 4.414278222232112,8 0,8 C-4.414278222232112,8 -8,4.414278222232112 -8,0 C-8,-4.414278222232112 -4.414278222232112,-8 0,-8 Z" transform="matrix(1,0,0,1,31.796875,53)" clip-path="url(#alignment-14687919244861022921)" fill="none" stroke="#31a354" stroke-width="4"/>
			<path d="M0,-8 C4.414278222232112,-8 8,-4.414278222232112 8,0 C8,4.414278222232112 4.414278222232112,8 0,8 C-4.414278222232112,8 -8,4.414278222232112 -8,0 C-8,-4.414278222232112 -4.414278222232112,-8 0,-8 Z" transform="matrix(1,0,0,1,31.796875,9)" fill="#a1d99b"/>
			<path d="M0,-8 C4.414278222232112,-8 8,-4.414278222232112 8,0 C8,4.414278222232112 4.414278222232112,8 0,8 C-4.414278222232112,8 -8,4.414278222232112 -8,0 C-8,-4.414278222232112 -4.414278222232112,-8 0,-8 Z" transform="matrix(1,0,0,1,31.796875,9)" clip-path="url(#alignment-17919988791477282824)" fill="none" stroke="#31a354" stroke-width="4"/>
		</g>
		<g transform="matrix(1,0,0,1,8.975519816,0)">
			<path d="M0,-8 C4.414278222232112,-8 8,-4.414278222232112 8,0 C8,4.414278222232112 4.414278222232112,8 0,8 C-4.414278222232112,8 -8,4.414278222232112 -8,0 C-8,-4.414278222232112 -4.414278222232112,-8 0,-8 Z" transform="matrix(1,0,0,1,12.546875,8.965316772)" fill="#a1d99b"/>
			<path d="M0,-8 C4.414278222232112,-8 8,-4.414278222232112 8,0 C8,4.414278222232112 4.414278222232112,8 0,8 C-4.414278222232112,8 -8,4.414278222232112 -8,0 C-8,-4.414278222232112 -4.414278222232112,-8 0,-8 Z" transform="matrix(1,0,0,1,12.546875,8.965316772)" clip-path="url(#alignment-6834363035992999993)" fill="none" stroke="#31a354" stroke-width="4"/>
			<path d="M0,-8 C4.414278222232112,-8 8,-4.414278222232112 8,0 C8,4.414278222232112 4.414278222232112,8 0,8 C-4.414278222232112,8 -8,4.414278222232112 -8,0 C-8,-4.414278222232112 -4.414278222232112,-8 0,-8 Z" transform="matrix(1,0,0,1,51.046875,8.965316772)" fill="#a1d99b"/>
			<path d="M0,-8 C4.414278222232112,-8 8,-4.414278222232112 8,0 C8,4.414278222232112 4.414278222232112,8 0,8 C-4.414278222232112,8 -8,4.414278222232112 -8,0 C-8,-4.414278222232112 -4.414278222232112,-8 0,-8 Z" transform="matrix(1,0,0,1,51.046875,8.965316772)" clip-path="url(#alignment-16267904097499582252)" fill="none" stroke="#31a354" stroke-width="4"/>
		</g>
	</g>
</g></g></svg>